League Spartan-Black.ufo
<glyph name="exclam" format="2">
	<advance width="374"/>
	<unicode hex="0021"/>
	<outline>
		<contour>
			<point x="48" y="860" type="line"/>
			<point x="97" y="297" type="line"/>
			<point x="262" y="297" type="line"/>
			<point x="310" y="860" type="line"/>
		</contour>
		<contour>
			<point x="179" y="-15" type="curve"/>
			<point x="179" y="-15" type="line"/>
			<point x="254" y="-15"/>
			<point x="314" y="45"/>
			<point x="314" y="119" type="curve"/>
			<point x="314" y="193"/>
			<point x="254" y="254"/>
			<point x="179" y="254" type="curve"/>
			<point x="105" y="254"/>
			<point x="45" y="193"/>
			<point x="45" y="119" type="curve"/>
			<point x="45" y="45"/>
			<point x="106" y="-15"/>
		</contour>
	</outline>
</glyph>
<glyph name="quotedbl" format="2">
	<advance width="538"/>
	<unicode hex="0022"/>
	<outline>
		<contour>
			<point x="140" y="854" type="curve"/>
			<point x="140" y="854" type="line"/>
			<point x="89" y="854"/>
			<point x="39" y="812"/>
			<point x="39" y="769" type="curve"/>
			<point x="39" y="764" type="line" smooth="yes"/>
			<point x="39" y="726"/>
			<point x="74" y="557"/>
			<point x="100" y="440" type="curve"/>
			<point x="159" y="440" type="line"/>
			<point x="195" y="557"/>
			<point x="242" y="726"/>
			<point x="242" y="764" type="curve"/>
			<point x="242" y="769" type="line" smooth="yes"/>
			<point x="242" y="812"/>
			<point x="192" y="854"/>
		</contour>
		<contour>
			<point x="382" y="854" type="curve"/>
			<point x="382" y="854" type="line"/>
			<point x="331" y="854"/>
			<point x="281" y="812"/>
			<point x="281" y="769" type="curve"/>
			<point x="281" y="764" type="line" smooth="yes"/>
			<point x="281" y="726"/>
			<point x="316" y="557"/>
			<point x="342" y="440" type="curve"/>
			<point x="401" y="440" type="line"/>
			<point x="437" y="557"/>
			<point x="484" y="726"/>
			<point x="484" y="764" type="curve"/>
			<point x="484" y="769" type="line" smooth="yes"/>
			<point x="484" y="812"/>
			<point x="434" y="854"/>
		</contour>
	</outline>
</glyph>
<glyph name="numbersign" format="2">
	<advance width="858"/>
	<unicode hex="0023"/>
	<outline>
		<contour>
			<point x="465" y="825" type="line"/>
			<point x="303" y="825" type="line"/>
			<point x="85" y="0" type="line"/>
			<point x="247" y="0" type="line"/>
		</contour>
		<contour>
			<point x="745" y="825" type="line"/>
			<point x="583" y="825" type="line"/>
			<point x="365" y="0" type="line"/>
			<point x="527" y="0" type="line"/>
		</contour>
		<contour>
			<point x="781" y="623" type="line"/>
			<point x="161" y="623" type="line"/>
			<point x="115" y="468" type="line"/>
			<point x="735" y="468" type="line"/>
		</contour>
		<contour>
			<point x="716" y="358" type="line"/>
			<point x="96" y="358" type="line"/>
			<point x="50" y="203" type="line"/>
			<point x="670" y="203" type="line"/>
		</contour>
	</outline>
</glyph>
<glyph name="dollar" format="2">
	<advance width="727"/>
	<unicode hex="0024"/>
	<outline>
		<contour>
			<point x="420" y="959" type="line"/>
			<point x="286" y="959" type="line"/>
			<point x="286" y="817" type="line"/>
			<point x="420" y="817" type="line"/>
		</contour>
		<contour>
			<point x="420" y="13" type="line"/>
			<point x="286" y="13" type="line"/>
			<point x="286" y="-129" type="line"/>
			<point x="420" y="-129" type="line"/>
		</contour>
		<component base="S"/>
	</outline>
</glyph>
<glyph name="percent" format="2">
	<advance width="1050"/>
	<unicode hex="0025"/>
	<outline>
		<contour>
			<point x="869" y="825" type="line"/>
			<point x="714" y="825" type="line"/>
			<point x="184" y="0" type="line"/>
			<point x="339" y="0" type="line"/>
		</contour>
		<contour>
			<point x="20" y="643" type="curve"/>
			<point x="20" y="643" type="line"/>
			<point x="20" y="527"/>
			<point x="117" y="425"/>
			<point x="265" y="425" type="curve"/>
			<point x="413" y="425"/>
			<point x="510" y="527"/>
			<point x="510" y="643" type="curve"/>
			<point x="510" y="761"/>
			<point x="413" y="861"/>
			<point x="265" y="861" type="curve"/>
			<point x="117" y="861"/>
			<point x="20" y="761"/>
		</contour>
		<contour>
			<point x="184" y="643" type="curve"/>
			<point x="184" y="643" type="line"/>
			<point x="184" y="692"/>
			<point x="217" y="730"/>
			<point x="265" y="730" type="curve"/>
			<point x="313" y="730"/>
			<point x="344" y="692"/>
			<point x="344" y="643" type="curve"/>
			<point x="344" y="594"/>
			<point x="313" y="558"/>
			<point x="265" y="558" type="curve"/>
			<point x="217" y="558"/>
			<point x="184" y="594"/>
		</contour>
		<contour>
			<point x="540" y="182" type="curve"/>
			<point x="540" y="182" type="line"/>
			<point x="540" y="66"/>
			<point x="637" y="-36"/>
			<point x="785" y="-36" type="curve"/>
			<point x="933" y="-36"/>
			<point x="1030" y="66"/>
			<point x="1030" y="182" type="curve"/>
			<point x="1030" y="300"/>
			<point x="933" y="400"/>
			<point x="785" y="400" type="curve"/>
			<point x="637" y="400"/>
			<point x="540" y="300"/>
		</contour>
		<contour>
			<point x="704" y="182" type="curve"/>
			<point x="704" y="182" type="line"/>
			<point x="704" y="231"/>
			<point x="737" y="269"/>
			<point x="785" y="269" type="curve"/>
			<point x="833" y="269"/>
			<point x="864" y="231"/>
			<point x="864" y="182" type="curve"/>
			<point x="864" y="133"/>
			<point x="833" y="97"/>
			<point x="785" y="97" type="curve"/>
			<point x="737" y="97"/>
			<point x="704" y="133"/>
		</contour>
	</outline>
</glyph>
<glyph name="ampersand" format="2">
	<advance width="895"/>
	<unicode hex="0026"/>
	<outline>
		<contour>
			<point x="10" y="233" type="curve"/>
			<point x="10" y="233" type="line"/>
			<point x="10" y="65"/>
			<point x="156" y="-15"/>
			<point x="303" y="-15" type="curve"/>
			<point x="429" y="-15"/>
			<point x="503" y="23"/>
			<point x="567" y="67" type="curve"/>
			<point x="631" y="0" type="line"/>
			<point x="933" y="0" type="line"/>
			<point x="751" y="190" type="line"/>
			<point x="798" y="225"/>
			<point x="847" y="279"/>
			<point x="871" y="310" type="curve"/>
			<point x="712" y="457" type="line"/>
			<point x="661" y="393"/>
			<point x="615" y="352"/>
			<point x="594" y="339" type="curve"/>
			<point x="516" y="417" type="line"/>
			<point x="584" y="453"/>
			<point x="673" y="532"/>
			<point x="673" y="618" type="curve"/>
			<point x="673" y="744"/>
			<point x="590" y="840"/>
			<point x="407" y="840" type="curve"/>
			<point x="213" y="840"/>
			<point x="120" y="734"/>
			<point x="120" y="622" type="curve"/>
			<point x="120" y="533"/>
			<point x="168" y="477"/>
			<point x="211" y="458" type="curve"/>
			<point x="161" y="445"/>
			<point x="10" y="380"/>
		</contour>
		<contour>
			<point x="327" y="316" type="curve"/>
			<point x="327" y="316" type="line"/>
			<point x="411" y="229" type="line"/>
			<point x="398" y="221"/>
			<point x="373" y="211"/>
			<point x="351" y="211" type="curve"/>
			<point x="312" y="211"/>
			<point x="288" y="223"/>
			<point x="288" y="257" type="curve"/>
			<point x="288" y="281"/>
			<point x="310" y="305"/>
		</contour>
		<contour>
			<point x="406" y="660" type="curve"/>
			<point x="406" y="660" type="line"/>
			<point x="439" y="660"/>
			<point x="454" y="641"/>
			<point x="454" y="619" type="curve"/>
			<point x="454" y="587"/>
			<point x="404" y="551"/>
			<point x="395" y="546" type="curve"/>
			<point x="390" y="551"/>
			<point x="357" y="587"/>
			<point x="357" y="619" type="curve"/>
			<point x="357" y="641"/>
			<point x="373" y="660"/>
		</contour>
	</outline>
</glyph>
<glyph name="quotesingle" format="2">
	<advance width="316"/>
	<unicode hex="0027"/>
	<outline>
		<contour>
			<point x="150" y="854" type="curve"/>
			<point x="150" y="854" type="line"/>
			<point x="99" y="854"/>
			<point x="49" y="817"/>
			<point x="49" y="739" type="curve"/>
			<point x="49" y="637"/>
			<point x="83" y="524"/>
			<point x="110" y="440" type="curve"/>
			<point x="169" y="440" type="line"/>
			<point x="205" y="524"/>
			<point x="252" y="635"/>
			<point x="252" y="739" type="curve"/>
			<point x="252" y="817"/>
			<point x="202" y="854"/>
		</contour>
	</outline>
</glyph>
<glyph name="parenleft" format="2">
	<advance width="428"/>
	<unicode hex="0028"/>
	<outline>
		<contour>
			<point x="224" y="-265" type="curve"/>
			<point x="224" y="-265" type="line"/>
			<point x="366" y="-207" type="line"/>
			<point x="315" y="-136"/>
			<point x="248" y="50"/>
			<point x="248" y="297" type="curve"/>
			<point x="248" y="558"/>
			<point x="326" y="748"/>
			<point x="384" y="819" type="curve"/>
			<point x="244" y="877" type="line"/>
			<point x="156" y="781"/>
			<point x="40" y="557"/>
			<point x="40" y="297" type="curve"/>
			<point x="40" y="44"/>
			<point x="145" y="-172"/>
		</contour>
	</outline>
</glyph>
<glyph name="asterisk" format="2">
	<advance width="513"/>
	<unicode hex="002A"/>
	<outline>
		<contour>
			<point x="410" y="786" type="line"/>
			<point x="301" y="754" type="line"/>
			<point x="301" y="865" type="line"/>
			<point x="196" y="865" type="line"/>
			<point x="196" y="754" type="line"/>
			<point x="87" y="786" type="line"/>
			<point x="56" y="691" type="line"/>
			<point x="173" y="654" type="line"/>
			<point x="94" y="566" type="line"/>
			<point x="183" y="502" type="line"/>
			<point x="249" y="588" type="line"/>
			<point x="317" y="503" type="line"/>
			<point x="405" y="566" type="line"/>
			<point x="325" y="654" type="line"/>
			<point x="441" y="691" type="line"/>
		</contour>
	</outline>
</glyph>
<glyph name="plus" format="2">
	<advance width="658"/>
	<unicode hex="002B"/>
	<outline>
		<contour>
			<point x="421" y="158" type="line"/>
			<point x="421" y="316" type="line"/>
			<point x="578" y="316" type="line"/>
			<point x="578" y="513" type="line"/>
			<point x="421" y="513" type="line"/>
			<point x="421" y="671" type="line"/>
			<point x="223" y="671" type="line"/>
			<point x="223" y="513" type="line"/>
			<point x="65" y="513" type="line"/>
			<point x="65" y="316" type="line"/>
			<point x="223" y="316" type="line"/>
			<point x="223" y="158" type="line"/>
		</contour>
	</outline>
</glyph>
<glyph name="comma" format="2">
	<advance width="374"/>
	<unicode hex="002C"/>
	<outline>
		<contour>
			<point x="179" y="251" type="curve"/>
			<point x="179" y="251" type="line"/>
			<point x="108" y="251"/>
			<point x="48" y="192"/>
			<point x="48" y="120" type="curve"/>
			<point x="48" y="39"/>
			<point x="103" y="-7"/>
			<point x="159" y="-7" type="curve"/>
			<point x="177" y="-7"/>
			<point x="187" y="-5"/>
			<point x="195" y="0" type="curve"/>
			<point x="175" y="-61"/>
			<point x="107" y="-117"/>
			<point x="61" y="-142" type="curve"/>
			<point x="118" y="-209" type="line"/>
			<point x="219" y="-153"/>
			<point x="309" y="-22"/>
			<point x="309" y="102" type="curve"/>
			<point x="309" y="202"/>
			<point x="250" y="251"/>
		</contour>
	</outline>
</glyph>
<glyph name="hyphen" format="2">
	<advance width="467"/>
	<unicode hex="002D"/>
	<outline>
		<contour>
			<point x="65" y="388" type="line"/>
			<point x="65" y="180" type="line"/>
			<point x="387" y="180" type="line"/>
			<point x="387" y="388" type="line"/>
		</contour>
	</outline>
</glyph>
<glyph name="period" format="2">
	<advance width="374"/>
	<unicode hex="002E"/>
	<outline>
		<contour>
			<point x="179" y="-15" type="curve"/>
			<point x="179" y="-15" type="line"/>
			<point x="253" y="-15"/>
			<point x="313" y="45"/>
			<point x="313" y="119" type="curve"/>
			<point x="313" y="193"/>
			<point x="253" y="253"/>
			<point x="179" y="253" type="curve"/>
			<point x="105" y="253"/>
			<point x="45" y="193"/>
			<point x="45" y="119" type="curve"/>
			<point x="45" y="45"/>
			<point x="105" y="-15"/>
		</contour>
	</outline>
</glyph>
<glyph name="slash" format="2">
	<advance width="636"/>
	<unicode hex="002F"/>
	<outline>
		<contour>
			<point x="611" y="860" type="line"/>
			<point x="422" y="860" type="line"/>
			<point x="10" y="-120" type="line"/>
			<point x="199" y="-120" type="line"/>
		</contour>
	</outline>
</glyph>
<glyph name="zero" format="2">
	<advance width="752"/>
	<unicode hex="0030"/>
	<outline>
		<contour>
			<point x="17" y="412" type="curve"/>
			<point x="17" y="412" type="line"/>
			<point x="17" y="102"/>
			<point x="179" y="-15"/>
			<point x="369" y="-15" type="curve"/>
			<point x="560" y="-15"/>
			<point x="720" y="102"/>
			<point x="720" y="412" type="curve"/>
			<point x="720" y="693"/>
			<point x="560" y="840"/>
			<point x="369" y="840" type="curve"/>
			<point x="179" y="840"/>
			<point x="17" y="693"/>
		</contour>
		<contour>
			<point x="259" y="412" type="curve"/>
			<point x="259" y="412" type="line"/>
			<point x="259" y="544"/>
			<point x="292" y="629"/>
			<point x="369" y="629" type="curve"/>
			<point x="446" y="629"/>
			<point x="478" y="544"/>
			<point x="478" y="412" type="curve"/>
			<point x="478" y="264"/>
			<point x="446" y="196"/>
			<point x="369" y="196" type="curve"/>
			<point x="292" y="196"/>
			<point x="259" y="263"/>
		</contour>
	</outline>
</glyph>
<glyph name="one" format="2">
	<advance width="429"/>
	<unicode hex="0031"/>
	<outline>
		<contour>
			<point x="5" y="456" type="line"/>
			<point x="128" y="516" type="line"/>
			<point x="128" y="0" type="line"/>
			<point x="370" y="0" type="line"/>
			<point x="370" y="825" type="line"/>
			<point x="263" y="825" type="line"/>
			<point x="5" y="684" type="line"/>
		</contour>
	</outline>
</glyph>
<glyph name="two" format="2">
	<advance width="734"/>
	<unicode hex="0032"/>
	<outline>
		<contour>
			<point x="359" y="637" type="curve"/>
			<point x="359" y="637" type="line"/>
			<point x="411" y="637"/>
			<point x="441" y="616"/>
			<point x="441" y="565" type="curve"/>
			<point x="441" y="432"/>
			<point x="57" y="195"/>
			<point x="48" y="190" type="curve"/>
			<point x="48" y="0" type="line"/>
			<point x="677" y="0" type="line"/>
			<point x="677" y="209" type="line"/>
			<point x="409" y="209" type="line"/>
			<point x="416" y="210"/>
			<point x="684" y="344"/>
			<point x="684" y="561" type="curve"/>
			<point x="684" y="657"/>
			<point x="628" y="840"/>
			<point x="359" y="840" type="curve"/>
			<point x="83" y="840"/>
			<point x="13" y="629"/>
			<point x="8" y="598" type="curve"/>
			<point x="213" y="503" type="line"/>
			<point x="216" y="514"/>
			<point x="267" y="637"/>
		</contour>
	</outline>
</glyph>
<glyph name="three" format="2">
	<advance width="690"/>
	<unicode hex="0033"/>
	<outline>
		<contour>
			<point x="31" y="637" type="curve"/>
			<point x="31" y="637" type="line"/>
			<point x="224" y="545" type="line"/>
			<point x="234" y="590"/>
			<point x="271" y="649"/>
			<point x="335" y="649" type="curve"/>
			<point x="379" y="649"/>
			<point x="406" y="620"/>
			<point x="406" y="583" type="curve"/>
			<point x="406" y="543"/>
			<point x="379" y="517"/>
			<point x="338" y="517" type="curve"/>
			<point x="317" y="517" type="line"/>
			<point x="317" y="348" type="line"/>
			<point x="333" y="348" type="line"/>
			<point x="382" y="348"/>
			<point x="419" y="322"/>
			<point x="419" y="273" type="curve"/>
			<point x="419" y="223"/>
			<point x="385" y="192"/>
			<point x="333" y="192" type="curve"/>
			<point x="275" y="192"/>
			<point x="237" y="263"/>
			<point x="225" y="316" type="curve"/>
			<point x="3" y="208" type="line"/>
			<point x="28" y="112"/>
			<point x="134" y="-15"/>
			<point x="334" y="-15" type="curve"/>
			<point x="518" y="-15"/>
			<point x="657" y="100"/>
			<point x="657" y="265" type="curve"/>
			<point x="657" y="369"/>
			<point x="590" y="438"/>
			<point x="536" y="449" type="curve"/>
			<point x="578" y="464"/>
			<point x="621" y="526"/>
			<point x="621" y="601" type="curve"/>
			<point x="621" y="750"/>
			<point x="493" y="840"/>
			<point x="337" y="840" type="curve"/>
			<point x="152" y="840"/>
			<point x="53" y="724"/>
		</contour>
	</outline>
</glyph>
<glyph name="four" format="2">
	<advance width="686"/>
	<unicode hex="0034"/>
	<outline>
		<contour>
			<point x="570" y="383" type="line"/>
			<point x="570" y="825" type="line"/>
			<point x="287" y="825" type="line"/>
			<point x="-6" y="363" type="line"/>
			<point x="-6" y="174" type="line"/>
			<point x="329" y="174" type="line"/>
			<point x="329" y="0" type="line"/>
			<point x="570" y="0" type="line"/>
			<point x="570" y="174" type="line"/>
			<point x="666" y="174" type="line"/>
			<point x="666" y="383" type="line"/>
		</contour>
		<contour>
			<point x="329" y="532" type="line"/>
			<point x="329" y="383" type="line"/>
			<point x="233" y="383" type="line"/>
			<point x="327" y="532" type="line"/>
		</contour>
	</outline>
</glyph>
<glyph name="five" format="2">
	<advance width="685"/>
	<unicode hex="0035"/>
	<outline>
		<contour>
			<point x="216" y="267" type="curve"/>
			<point x="216" y="267" type="line"/>
			<point x="10" y="179" type="line"/>
			<point x="48" y="75"/>
			<point x="143" y="-15"/>
			<point x="327" y="-15" type="curve"/>
			<point x="504" y="-15"/>
			<point x="645" y="101"/>
			<point x="645" y="292" type="curve"/>
			<point x="645" y="480"/>
			<point x="511" y="555"/>
			<point x="392" y="555" type="curve"/>
			<point x="341" y="555"/>
			<point x="295" y="539"/>
			<point x="288" y="531" type="curve"/>
			<point x="305" y="616" type="line"/>
			<point x="604" y="616" type="line"/>
			<point x="604" y="825" type="line"/>
			<point x="104" y="825" type="line"/>
			<point x="28" y="390" type="line"/>
			<point x="225" y="317" type="line"/>
			<point x="234" y="333"/>
			<point x="264" y="365"/>
			<point x="317" y="365" type="curve"/>
			<point x="371" y="365"/>
			<point x="401" y="330"/>
			<point x="401" y="277" type="curve"/>
			<point x="401" y="223"/>
			<point x="371" y="185"/>
			<point x="317" y="185" type="curve"/>
			<point x="264" y="185"/>
			<point x="234" y="210"/>
		</contour>
	</outline>
</glyph>
<glyph name="six" format="2">
	<advance width="714"/>
	<unicode hex="0036"/>
	<outline>
		<contour>
			<point x="408" y="558" type="curve"/>
			<point x="408" y="558" type="line"/>
			<point x="383" y="558"/>
			<point x="374" y="554"/>
			<point x="369" y="550" type="curve"/>
			<point x="611" y="825" type="line"/>
			<point x="330" y="825" type="line"/>
			<point x="138" y="594" type="line" smooth="yes"/>
			<point x="82" y="527"/>
			<point x="27" y="433"/>
			<point x="27" y="287" type="curve"/>
			<point x="27" y="93"/>
			<point x="172" y="-15"/>
			<point x="349" y="-15" type="curve"/>
			<point x="525" y="-15"/>
			<point x="667" y="108"/>
			<point x="667" y="282" type="curve"/>
			<point x="667" y="458"/>
			<point x="530" y="558"/>
		</contour>
		<contour>
			<point x="347" y="180" type="curve"/>
			<point x="347" y="180" type="line"/>
			<point x="295" y="180"/>
			<point x="253" y="222"/>
			<point x="253" y="274" type="curve"/>
			<point x="253" y="325"/>
			<point x="295" y="367"/>
			<point x="347" y="367" type="curve"/>
			<point x="398" y="367"/>
			<point x="440" y="325"/>
			<point x="440" y="274" type="curve"/>
			<point x="440" y="222"/>
			<point x="398" y="180"/>
		</contour>
	</outline>
</glyph>
<glyph name="seven" format="2">
	<advance width="703"/>
	<unicode hex="0037"/>
	<outline>
		<contour>
			<point x="693" y="825" type="line"/>
			<point x="58" y="825" type="line"/>
			<point x="58" y="616" type="line"/>
			<point x="411" y="616" type="line"/>
			<point x="48" y="0" type="line"/>
			<point x="314" y="0" type="line"/>
			<point x="693" y="666" type="line"/>
		</contour>
	</outline>
</glyph>
<glyph name="eight" format="2">
	<advance width="712"/>
	<unicode hex="0038"/>
	<outline>
		<contour>
			<point x="350" y="-15" type="curve"/>
			<point x="350" y="-15" type="line"/>
			<point x="516" y="-15"/>
			<point x="671" y="84"/>
			<point x="671" y="232" type="curve"/>
			<point x="671" y="342"/>
			<point x="612" y="403"/>
			<point x="531" y="445" type="curve"/>
			<point x="592" y="485"/>
			<point x="632" y="529"/>
			<point x="632" y="620" type="curve"/>
			<point x="632" y="757"/>
			<point x="509" y="840"/>
			<point x="349" y="840" type="curve"/>
			<point x="193" y="840"/>
			<point x="62" y="757"/>
			<point x="62" y="620" type="curve"/>
			<point x="62" y="529"/>
			<point x="104" y="485"/>
			<point x="167" y="445" type="curve"/>
			<point x="85" y="403"/>
			<point x="27" y="342"/>
			<point x="27" y="232" type="curve"/>
			<point x="27" y="84"/>
			<point x="184" y="-15"/>
		</contour>
		<contour>
			<point x="349" y="194" type="curve"/>
			<point x="349" y="194" type="line"/>
			<point x="310" y="194"/>
			<point x="278" y="226"/>
			<point x="278" y="265" type="curve"/>
			<point x="278" y="304"/>
			<point x="310" y="336"/>
			<point x="349" y="336" type="curve"/>
			<point x="388" y="336"/>
			<point x="420" y="304"/>
			<point x="420" y="265" type="curve"/>
			<point x="420" y="226"/>
			<point x="388" y="194"/>
		</contour>
		<contour>
			<point x="350" y="519" type="curve"/>
			<point x="350" y="519" type="line"/>
			<point x="312" y="519"/>
			<point x="281" y="550"/>
			<point x="281" y="588" type="curve"/>
			<point x="281" y="625"/>
			<point x="312" y="656"/>
			<point x="350" y="656" type="curve"/>
			<point x="387" y="656"/>
			<point x="418" y="625"/>
			<point x="418" y="588" type="curve"/>
			<point x="418" y="550"/>
			<point x="387" y="519"/>
		</contour>
	</outline>
</glyph>
<glyph name="equal" format="2">
	<advance width="658"/>
	<unicode hex="003D"/>
	<outline>
		<contour>
			<point x="54" y="642" type="line"/>
			<point x="54" y="444" type="line"/>
			<point x="590" y="444" type="line"/>
			<point x="590" y="642" type="line"/>
		</contour>
		<contour>
			<point x="54" y="384" type="line"/>
			<point x="54" y="186" type="line"/>
			<point x="590" y="186" type="line"/>
			<point x="590" y="384" type="line"/>
		</contour>
	</outline>
</glyph>
<glyph name="greater" format="2">
	<advance width="687"/>
	<unicode hex="003E"/>
	<outline>
		<contour>
			<point x="51" y="311" type="line"/>
			<point x="51" y="101" type="line"/>
			<point x="616" y="328" type="line"/>
			<point x="616" y="504" type="line"/>
			<point x="51" y="732" type="line"/>
			<point x="51" y="521" type="line"/>
			<point x="360" y="415" type="line"/>
		</contour>
	</outline>
</glyph>
<glyph name="question" format="2">
	<advance width="621"/>
	<unicode hex="003F"/>
	<outline>
		<contour>
			<point x="178" y="389" type="curve"/>
			<point x="178" y="297" type="line"/>
			<point x="388" y="297" type="line"/>
			<point x="388" y="326" type="line" smooth="yes"/>
			<point x="388" y="377"/>
			<point x="403" y="411"/>
			<point x="448" y="436" type="curve"/>
			<point x="492" y="461"/>
			<point x="592" y="522"/>
			<point x="592" y="633" type="curve"/>
			<point x="592" y="763"/>
			<point x="466" y="840"/>
			<point x="306" y="840" type="curve"/>
			<point x="71" y="840"/>
			<point x="-3" y="663"/>
			<point x="-6" y="638" type="curve"/>
			<point x="193" y="560" type="line"/>
			<point x="205" y="593"/>
			<point x="226" y="639"/>
			<point x="274" y="639" type="curve"/>
			<point x="312" y="639"/>
			<point x="329" y="626"/>
			<point x="329" y="594" type="curve"/>
			<point x="329" y="558"/>
			<point x="295" y="533"/>
			<point x="256" y="513" type="curve"/>
			<point x="209" y="489"/>
			<point x="178" y="447"/>
		</contour>
		<contour>
			<point x="287" y="-15" type="curve"/>
			<point x="287" y="-15" type="line"/>
			<point x="362" y="-15"/>
			<point x="423" y="45"/>
			<point x="423" y="119" type="curve"/>
			<point x="423" y="194"/>
			<point x="362" y="254"/>
			<point x="287" y="254" type="curve"/>
			<point x="214" y="254"/>
			<point x="153" y="194"/>
			<point x="153" y="119" type="curve"/>
			<point x="153" y="45"/>
			<point x="214" y="-15"/>
		</contour>
	</outline>
</glyph>
<glyph name="at" format="2">
	<advance width="946"/>
	<unicode hex="0040"/>
	<outline>
		<contour>
			<point x="468" y="-15" type="curve"/>
			<point x="468" y="-15" type="line"/>
			<point x="627" y="-15"/>
			<point x="726" y="36"/>
			<point x="756" y="75" type="curve"/>
			<point x="607" y="204" type="line"/>
			<point x="591" y="186"/>
			<point x="542" y="163"/>
			<point x="468" y="163" type="curve"/>
			<point x="316" y="163"/>
			<point x="210" y="273"/>
			<point x="210" y="413" type="curve"/>
			<point x="210" y="554"/>
			<point x="323" y="677"/>
			<point x="478" y="677" type="curve"/>
			<point x="637" y="677"/>
			<point x="751" y="583"/>
			<point x="751" y="452" type="curve"/>
			<point x="751" y="401"/>
			<point x="748" y="378"/>
			<point x="715" y="378" type="curve"/>
			<point x="682" y="378"/>
			<point x="677" y="403"/>
			<point x="677" y="428" type="curve"/>
			<point x="677" y="595" type="line"/>
			<point x="531" y="595" type="line"/>
			<point x="531" y="567" type="line"/>
			<point x="490" y="602"/>
			<point x="451" y="606"/>
			<point x="418" y="606" type="curve"/>
			<point x="317" y="606"/>
			<point x="238" y="526"/>
			<point x="238" y="413" type="curve"/>
			<point x="238" y="298"/>
			<point x="328" y="202"/>
			<point x="438" y="202" type="curve"/>
			<point x="544" y="202"/>
			<point x="576" y="242"/>
			<point x="599" y="275" type="curve"/>
			<point x="622" y="250"/>
			<point x="666" y="225"/>
			<point x="713" y="225" type="curve"/>
			<point x="815" y="225"/>
			<point x="934" y="282"/>
			<point x="934" y="442" type="curve"/>
			<point x="934" y="678"/>
			<point x="712" y="840"/>
			<point x="478" y="840" type="curve"/>
			<point x="234" y="840"/>
			<point x="28" y="667"/>
			<point x="28" y="413" type="curve"/>
			<point x="28" y="159"/>
			<point x="224" y="-15"/>
		</contour>
		<contour>
			<point x="482" y="358" type="curve"/>
			<point x="482" y="358" type="line"/>
			<point x="454" y="358"/>
			<point x="432" y="380"/>
			<point x="432" y="408" type="curve"/>
			<point x="432" y="435"/>
			<point x="454" y="457"/>
			<point x="482" y="457" type="curve"/>
			<point x="509" y="457"/>
			<point x="531" y="435"/>
			<point x="531" y="408" type="curve"/>
			<point x="531" y="380"/>
			<point x="509" y="358"/>
		</contour>
	</outline>
</glyph>
<glyph name="A" format="2">
	<advance width="907"/>
	<unicode hex="0041"/>
	<anchor x="778" y="10" name="ogonek"/>
	<anchor x="439" y="0" name="bottom"/>
	<anchor x="439" y="825" name="top"/>
	<outline>
		<contour>
			<point x="557" y="825" type="line"/>
			<point x="320" y="825" type="line"/>
			<point x="-20" y="0" type="line"/>
			<point x="239" y="0" type="line"/>
			<point x="292" y="143" type="line"/>
			<point x="586" y="143" type="line"/>
			<point x="639" y="0" type="line"/>
			<point x="897" y="0" type="line"/>
		</contour>
		<contour>
			<point x="505" y="353" type="line"/>
			<point x="373" y="353" type="line"/>
			<point x="438" y="535" type="line"/>
			<point x="440" y="535" type="line"/>
		</contour>
	</outline>
</glyph>
<glyph name="B" format="2">
	<advance width="721"/>
	<unicode hex="0042"/>
	<anchor x="338" y="825" name="top"/>
	<anchor x="338" y="0" name="bottom"/>
	<outline>
		<contour>
			<point x="369" y="825" type="curve"/>
			<point x="49" y="825" type="line"/>
			<point x="49" y="0" type="line"/>
			<point x="393" y="0" type="line" smooth="yes"/>
			<point x="564" y="0"/>
			<point x="669" y="95"/>
			<point x="669" y="236" type="curve"/>
			<point x="669" y="368"/>
			<point x="600" y="430"/>
			<point x="504" y="444" type="curve"/>
			<point x="582" y="464"/>
			<point x="638" y="527"/>
			<point x="638" y="621" type="curve"/>
			<point x="638" y="768"/>
			<point x="514" y="825"/>
		</contour>
		<contour>
			<point x="325" y="191" type="curve"/>
			<point x="291" y="191" type="line"/>
			<point x="291" y="328" type="line"/>
			<point x="325" y="328" type="line" smooth="yes"/>
			<point x="379" y="328"/>
			<point x="413" y="316"/>
			<point x="413" y="261" type="curve"/>
			<point x="413" y="206"/>
			<point x="379" y="191"/>
		</contour>
		<contour>
			<point x="324" y="515" type="curve"/>
			<point x="291" y="515" type="line"/>
			<point x="291" y="634" type="line"/>
			<point x="324" y="634" type="line" smooth="yes"/>
			<point x="370" y="634"/>
			<point x="398" y="625"/>
			<point x="398" y="577" type="curve"/>
			<point x="398" y="529"/>
			<point x="370" y="515"/>
		</contour>
	</outline>
</glyph>
<glyph name="C" format="2">
	<advance width="754"/>
	<unicode hex="0043"/>
	<anchor x="436" y="825" name="top"/>
	<anchor x="436" y="0" name="bottom"/>
	<outline>
		<contour>
			<point x="681" y="567" type="curve"/>
			<point x="681" y="567" type="line"/>
			<point x="681" y="810" type="line"/>
			<point x="636" y="833"/>
			<point x="568" y="840"/>
			<point x="493" y="840" type="curve"/>
			<point x="208" y="840"/>
			<point x="24" y="654"/>
			<point x="24" y="413" type="curve"/>
			<point x="24" y="172"/>
			<point x="190" y="-15"/>
			<point x="493" y="-15" type="curve"/>
			<point x="561" y="-15"/>
			<point x="642" y="-5"/>
			<point x="681" y="11" type="curve"/>
			<point x="681" y="254" type="line"/>
			<point x="659" y="237"/>
			<point x="608" y="208"/>
			<point x="493" y="208" type="curve"/>
			<point x="356" y="208"/>
			<point x="276" y="294"/>
			<point x="276" y="413" type="curve"/>
			<point x="276" y="532"/>
			<point x="356" y="618"/>
			<point x="493" y="618" type="curve"/>
			<point x="608" y="618"/>
			<point x="659" y="586"/>
		</contour>
	</outline>
</glyph>
<glyph name="D" format="2">
	<advance width="777"/>
	<unicode hex="0044"/>
	<anchor x="231" y="413" name="center"/>
	<anchor x="365" y="0" name="bottom"/>
	<anchor x="365" y="825" name="top"/>
	<outline>
		<contour>
			<point x="330" y="825" type="curve"/>
			<point x="45" y="825" type="line"/>
			<point x="45" y="0" type="line"/>
			<point x="330" y="0" type="line" smooth="yes"/>
			<point x="593" y="0"/>
			<point x="726" y="172"/>
			<point x="726" y="413" type="curve"/>
			<point x="726" y="653"/>
			<point x="593" y="825"/>
		</contour>
		<contour>
			<point x="287" y="213" type="line"/>
			<point x="287" y="612" type="line"/>
			<point x="308" y="612" type="line" smooth="yes"/>
			<point x="412" y="612"/>
			<point x="469" y="524"/>
			<point x="469" y="412" type="curve"/>
			<point x="469" y="300"/>
			<point x="411" y="213"/>
			<point x="308" y="213" type="curve"/>
		</contour>
	</outline>
</glyph>
<glyph name="E" format="2">
	<advance width="677"/>
	<unicode hex="0045"/>
	<anchor x="544" y="10" name="ogonek"/>
	<anchor x="295" y="825" name="top"/>
	<anchor x="5" y="825" name="topleft"/>
	<anchor x="295" y="0" name="bottom"/>
	<outline>
		<contour>
			<point x="594" y="825" type="line"/>
			<point x="40" y="825" type="line"/>
			<point x="40" y="0" type="line"/>
			<point x="594" y="0" type="line"/>
			<point x="594" y="210" type="line"/>
			<point x="282" y="210" type="line"/>
			<point x="282" y="312" type="line"/>
			<point x="594" y="312" type="line"/>
			<point x="594" y="515" type="line"/>
			<point x="282" y="515" type="line"/>
			<point x="282" y="615" type="line"/>
			<point x="594" y="615" type="line"/>
		</contour>
	</outline>
</glyph>
<glyph name="F" format="2">
	<advance width="622"/>
	<unicode hex="0046"/>
	<anchor x="289" y="825" name="top"/>
	<anchor x="289" y="0" name="bottom"/>
	<outline>
		<contour>
			<point x="558" y="825" type="line"/>
			<point x="49" y="825" type="line"/>
			<point x="49" y="0" type="line"/>
			<point x="291" y="0" type="line"/>
			<point x="291" y="309" type="line"/>
			<point x="536" y="309" type="line"/>
			<point x="536" y="518" type="line"/>
			<point x="291" y="518" type="line"/>
			<point x="291" y="615" type="line"/>
			<point x="558" y="615" type="line"/>
		</contour>
	</outline>
</glyph>
<glyph name="G" format="2">
	<advance width="945"/>
	<unicode hex="0047"/>
	<anchor x="458" y="825" name="top"/>
	<anchor x="478" y="0" name="bottom"/>
	<outline>
		<contour>
			<point x="890" y="470" type="line"/>
			<point x="448" y="470" type="line"/>
			<point x="448" y="289" type="line"/>
			<point x="603" y="289" type="line"/>
			<point x="571" y="242"/>
			<point x="520" y="211"/>
			<point x="457" y="211" type="curve"/>
			<point x="348" y="211"/>
			<point x="276" y="302"/>
			<point x="276" y="413" type="curve"/>
			<point x="276" y="524"/>
			<point x="348" y="615"/>
			<point x="457" y="615" type="curve"/>
			<point x="519" y="615"/>
			<point x="570" y="585"/>
			<point x="601" y="539" type="curve"/>
			<point x="795" y="685" type="line"/>
			<point x="717" y="780"/>
			<point x="596" y="840"/>
			<point x="457" y="840" type="curve"/>
			<point x="211" y="840"/>
			<point x="24" y="654"/>
			<point x="24" y="413" type="curve"/>
			<point x="24" y="172"/>
			<point x="194" y="-15"/>
			<point x="457" y="-15" type="curve"/>
			<point x="714" y="-15"/>
			<point x="890" y="172"/>
			<point x="890" y="413" type="curve"/>
		</contour>
	</outline>
</glyph>
<glyph name="H" format="2">
	<advance width="814"/>
	<unicode hex="0048"/>
	<anchor x="386" y="599" name="center"/>
	<anchor x="386" y="825" name="top"/>
	<anchor x="0" y="825" name="topleft"/>
	<anchor x="386" y="-186" name="bottom"/>
	<outline>
		<contour>
			<point x="282" y="309" type="line"/>
			<point x="490" y="309" type="line"/>
			<point x="490" y="0" type="line"/>
			<point x="731" y="0" type="line"/>
			<point x="731" y="825" type="line"/>
			<point x="490" y="825" type="line"/>
			<point x="490" y="518" type="line"/>
			<point x="282" y="518" type="line"/>
			<point x="282" y="825" type="line"/>
			<point x="40" y="825" type="line"/>
			<point x="40" y="0" type="line"/>
			<point x="282" y="0" type="line"/>
		</contour>
	</outline>
</glyph>
<glyph name="I" format="2">
	<advance width="370"/>
	<unicode hex="0049"/>
	<anchor x="307" y="10" name="ogonek"/>
	<anchor x="166" y="825" name="top"/>
	<anchor x="10" y="825" name="topleft"/>
	<anchor x="166" y="0" name="bottom"/>
	<outline>
		<contour>
			<point x="287" y="825" type="line"/>
			<point x="45" y="825" type="line"/>
			<point x="45" y="0" type="line"/>
			<point x="287" y="0" type="line"/>
		</contour>
	</outline>
</glyph>
<glyph name="J" format="2">
	<advance width="531"/>
	<unicode hex="004A"/>
	<anchor x="340" y="825" name="top"/>
	<anchor x="260" y="0" name="bottom"/>
	<outline>
		<contour>
			<point x="456" y="256" type="curve"/>
			<point x="456" y="256" type="line"/>
			<point x="456" y="825" type="line"/>
			<point x="214" y="825" type="line"/>
			<point x="214" y="308" type="line" smooth="yes"/>
			<point x="214" y="225"/>
			<point x="166" y="219"/>
			<point x="137" y="219" type="curve"/>
			<point x="108" y="219"/>
			<point x="74" y="242"/>
			<point x="58" y="262" type="curve"/>
			<point x="-28" y="51" type="line"/>
			<point x="-16" y="36"/>
			<point x="63" y="-15"/>
			<point x="175" y="-15" type="curve"/>
			<point x="340" y="-15"/>
			<point x="456" y="84"/>
		</contour>
	</outline>
</glyph>
<glyph name="K" format="2">
	<advance width="786"/>
	<unicode hex="004B"/>
	<anchor x="386" y="825" name="top"/>
	<anchor x="386" y="0" name="bottom"/>
	<outline>
		<contour>
			<point x="765" y="0" type="line"/>
			<point x="468" y="433" type="line"/>
			<point x="728" y="825" type="line"/>
			<point x="456" y="825" type="line"/>
			<point x="260" y="515" type="line"/>
			<point x="260" y="825" type="line"/>
			<point x="18" y="825" type="line"/>
			<point x="18" y="0" type="line"/>
			<point x="260" y="0" type="line"/>
			<point x="260" y="347" type="line"/>
			<point x="477" y="0" type="line"/>
		</contour>
	</outline>
</glyph>
<glyph name="L" format="2">
	<advance width="640"/>
	<unicode hex="004C"/>
	<anchor x="147" y="599" name="center"/>
	<anchor x="288" y="825" name="top"/>
	<anchor x="566" y="825" name="topright"/>
	<anchor x="311" y="0" name="bottom"/>
	<outline>
		<contour>
			<point x="291" y="825" type="line"/>
			<point x="49" y="825" type="line"/>
			<point x="49" y="0" type="line"/>
			<point x="573" y="0" type="line"/>
			<point x="573" y="210" type="line"/>
			<point x="291" y="210" type="line"/>
		</contour>
	</outline>
</glyph>
<glyph name="M" format="2">
	<advance width="1100"/>
	<unicode hex="004D"/>
	<anchor x="530" y="825" name="top"/>
	<anchor x="530" y="0" name="bottom"/>
	<outline>
		<contour>
			<point x="1010" y="0" type="line"/>
			<point x="1010" y="825" type="line"/>
			<point x="664" y="825" type="line"/>
			<point x="539" y="342" type="line"/>
			<point x="525" y="260" type="line"/>
			<point x="511" y="342" type="line"/>
			<point x="386" y="825" type="line"/>
			<point x="40" y="825" type="line"/>
			<point x="40" y="0" type="line"/>
			<point x="282" y="0" type="line"/>
			<point x="282" y="410" type="line"/>
			<point x="272" y="580" type="line"/>
			<point x="310" y="382" type="line"/>
			<point x="406" y="80" type="line"/>
			<point x="643" y="80" type="line"/>
			<point x="740" y="382" type="line"/>
			<point x="778" y="580" type="line"/>
			<point x="768" y="410" type="line"/>
			<point x="768" y="0" type="line"/>
		</contour>
	</outline>
</glyph>
<glyph name="N" format="2">
	<advance width="943"/>
	<unicode hex="004E"/>
	<anchor x="450" y="825" name="top"/>
	<anchor x="450" y="0" name="bottom"/>
	<outline>
		<contour>
			<point x="282" y="602" type="line"/>
			<point x="264" y="605" type="line"/>
			<point x="531" y="0" type="line"/>
			<point x="860" y="0" type="line"/>
			<point x="860" y="825" type="line"/>
			<point x="618" y="825" type="line"/>
			<point x="618" y="221" type="line"/>
			<point x="636" y="225" type="line"/>
			<point x="367" y="825" type="line"/>
			<point x="40" y="825" type="line"/>
			<point x="40" y="0" type="line"/>
			<point x="282" y="0" type="line"/>
		</contour>
	</outline>
</glyph>
<glyph name="O" format="2">
	<advance width="945"/>
	<unicode hex="004F"/>
	<anchor x="457" y="599" name="center"/>
	<anchor x="638" y="10" name="ogonek"/>
	<anchor x="457" y="825" name="top"/>
	<anchor x="711" y="748" name="topright"/>
	<anchor x="25" y="825" name="topleft"/>
	<anchor x="457" y="-186" name="bottom"/>
	<outline>
		<contour>
			<point x="276" y="413" type="curve"/>
			<point x="276" y="413" type="line"/>
			<point x="276" y="524"/>
			<point x="348" y="615"/>
			<point x="457" y="615" type="curve"/>
			<point x="566" y="615"/>
			<point x="638" y="524"/>
			<point x="638" y="413" type="curve"/>
			<point x="638" y="302"/>
			<point x="566" y="211"/>
			<point x="457" y="211" type="curve"/>
			<point x="348" y="211"/>
			<point x="276" y="302"/>
		</contour>
		<contour>
			<point x="24" y="413" type="curve"/>
			<point x="24" y="413" type="line"/>
			<point x="24" y="172"/>
			<point x="194" y="-15"/>
			<point x="457" y="-15" type="curve"/>
			<point x="714" y="-15"/>
			<point x="890" y="172"/>
			<point x="890" y="413" type="curve"/>
			<point x="890" y="654"/>
			<point x="706" y="840"/>
			<point x="457" y="840" type="curve"/>
			<point x="211" y="840"/>
			<point x="24" y="654"/>
		</contour>
	</outline>
</glyph>
<glyph name="P" format="2">
	<advance width="721"/>
	<unicode hex="0050"/>
	<anchor x="338" y="825" name="top"/>
	<anchor x="338" y="0" name="bottom"/>
	<outline>
		<contour>
			<point x="384" y="825" type="curve"/>
			<point x="38" y="825" type="line"/>
			<point x="38" y="0" type="line"/>
			<point x="280" y="0" type="line"/>
			<point x="280" y="293" type="line"/>
			<point x="384" y="293" type="line" smooth="yes"/>
			<point x="545" y="293"/>
			<point x="671" y="396"/>
			<point x="671" y="565" type="curve"/>
			<point x="671" y="734"/>
			<point x="545" y="825"/>
		</contour>
		<contour>
			<point x="316" y="481" type="curve"/>
			<point x="280" y="481" type="line"/>
			<point x="280" y="637" type="line"/>
			<point x="316" y="637" type="line" smooth="yes"/>
			<point x="371" y="637"/>
			<point x="412" y="614"/>
			<point x="412" y="559" type="curve"/>
			<point x="412" y="504"/>
			<point x="371" y="481"/>
		</contour>
	</outline>
</glyph>
<glyph name="Q" format="2">
	<advance width="932"/>
	<unicode hex="0051"/>
	<outline>
		<contour>
			<point x="672" y="-14" type="curve"/>
			<point x="672" y="-14" type="line"/>
			<point x="596" y="-14"/>
			<point x="547" y="21"/>
			<point x="438" y="21" type="curve"/>
			<point x="316" y="21"/>
			<point x="214" y="-27"/>
			<point x="164" y="-92" type="curve"/>
			<point x="257" y="-203" type="line"/>
			<point x="259" y="-199"/>
			<point x="307" y="-159"/>
			<point x="385" y="-159" type="curve"/>
			<point x="521" y="-159"/>
			<point x="547" y="-234"/>
			<point x="675" y="-234" type="curve"/>
			<point x="779" y="-234"/>
			<point x="855" y="-181"/>
			<point x="883" y="-129" type="curve"/>
			<point x="807" y="26" type="line"/>
			<point x="802" y="18"/>
			<point x="741" y="-14"/>
		</contour>
		<component base="O"/>
	</outline>
</glyph>
<glyph name="R" format="2">
	<advance width="771"/>
	<unicode hex="0052"/>
	<anchor x="363" y="825" name="top"/>
	<anchor x="363" y="0" name="bottom"/>
	<outline>
		<contour>
			<point x="404" y="825" type="curve"/>
			<point x="34" y="825" type="line"/>
			<point x="34" y="0" type="line"/>
			<point x="276" y="0" type="line"/>
			<point x="276" y="313" type="line"/>
			<point x="260" y="313" type="line"/>
			<point x="430" y="0" type="line"/>
			<point x="701" y="0" type="line"/>
			<point x="504" y="332" type="line"/>
			<point x="565" y="345"/>
			<point x="659" y="406"/>
			<point x="659" y="565" type="curve"/>
			<point x="659" y="725"/>
			<point x="554" y="825"/>
		</contour>
		<contour>
			<point x="316" y="477" type="curve"/>
			<point x="276" y="477" type="line"/>
			<point x="276" y="637" type="line"/>
			<point x="318" y="637" type="line" smooth="yes"/>
			<point x="362" y="637"/>
			<point x="410" y="622"/>
			<point x="410" y="557" type="curve"/>
			<point x="410" y="492"/>
			<point x="360" y="477"/>
		</contour>
	</outline>
</glyph>
<glyph name="S" format="2">
	<advance width="727"/>
	<unicode hex="0053"/>
	<anchor x="341" y="825" name="top"/>
	<anchor x="341" y="0" name="bottom"/>
	<outline>
		<contour>
			<point x="371" y="840" type="curve"/>
			<point x="371" y="840" type="line"/>
			<point x="219" y="840"/>
			<point x="74" y="749"/>
			<point x="74" y="597" type="curve"/>
			<point x="74" y="446"/>
			<point x="176" y="378"/>
			<point x="281" y="340" type="curve"/>
			<point x="390" y="301"/>
			<point x="418" y="280"/>
			<point x="418" y="250" type="curve"/>
			<point x="418" y="222"/>
			<point x="394" y="206"/>
			<point x="341" y="206" type="curve"/>
			<point x="263" y="206"/>
			<point x="144" y="269"/>
			<point x="126" y="284" type="curve"/>
			<point x="8" y="82" type="line"/>
			<point x="28" y="62"/>
			<point x="157" y="-15"/>
			<point x="341" y="-15" type="curve"/>
			<point x="501" y="-15"/>
			<point x="670" y="55"/>
			<point x="670" y="239" type="curve"/>
			<point x="670" y="377"/>
			<point x="579" y="457"/>
			<point x="451" y="499" type="curve"/>
			<point x="352" y="532"/>
			<point x="321" y="552"/>
			<point x="321" y="582" type="curve"/>
			<point x="321" y="611"/>
			<point x="354" y="622"/>
			<point x="398" y="622" type="curve"/>
			<point x="454" y="622"/>
			<point x="527" y="581"/>
			<point x="547" y="566" type="curve"/>
			<point x="661" y="760" type="line"/>
			<point x="643" y="774"/>
			<point x="531" y="840"/>
		</contour>
	</outline>
</glyph>
<glyph name="T" format="2">
	<advance width="651"/>
	<unicode hex="0054"/>
	<anchor x="303" y="413" name="center"/>
	<anchor x="303" y="0" name="bottom"/>
	<anchor x="303" y="825" name="top"/>
	<outline>
		<contour>
			<point x="4" y="615" type="line"/>
			<point x="182" y="615" type="line"/>
			<point x="182" y="0" type="line"/>
			<point x="424" y="0" type="line"/>
			<point x="424" y="615" type="line"/>
			<point x="602" y="615" type="line"/>
			<point x="602" y="825" type="line"/>
			<point x="4" y="825" type="line"/>
		</contour>
	</outline>
</glyph>
<glyph name="U" format="2">
	<advance width="809"/>
	<unicode hex="0055"/>
	<anchor x="700" y="10" name="ogonek"/>
	<anchor x="388" y="825" name="top"/>
	<anchor x="732" y="825" name="topright"/>
	<anchor x="388" y="0" name="bottom"/>
	<outline>
		<contour>
			<point x="732" y="825" type="line"/>
			<point x="490" y="825" type="line"/>
			<point x="490" y="335" type="line" smooth="yes"/>
			<point x="490" y="243"/>
			<point x="457" y="204"/>
			<point x="388" y="204" type="curve"/>
			<point x="318" y="204"/>
			<point x="285" y="243"/>
			<point x="285" y="335" type="curve"/>
			<point x="285" y="825" type="line"/>
			<point x="43" y="825" type="line"/>
			<point x="43" y="322" type="line" smooth="yes"/>
			<point x="43" y="118"/>
			<point x="164" y="-15"/>
			<point x="388" y="-15" type="curve"/>
			<point x="612" y="-15"/>
			<point x="732" y="118"/>
			<point x="732" y="322" type="curve"/>
		</contour>
	</outline>
</glyph>
<glyph name="V" format="2">
	<advance width="886"/>
	<unicode hex="0056"/>
	<anchor x="423" y="825" name="top"/>
	<anchor x="423" y="0" name="bottom"/>
	<outline>
		<contour>
			<point x="288" y="0" type="line"/>
			<point x="558" y="0" type="line"/>
			<point x="846" y="825" type="line"/>
			<point x="573" y="825" type="line"/>
			<point x="423" y="313" type="line"/>
			<point x="273" y="825" type="line"/>
			<point x="0" y="825" type="line"/>
		</contour>
	</outline>
</glyph>
<glyph name="W" format="2">
	<advance width="1223"/>
	<unicode hex="0057"/>
	<anchor x="595" y="825" name="top"/>
	<anchor x="595" y="0" name="bottom"/>
	<outline>
		<contour>
			<point x="682" y="0" type="line"/>
			<point x="969" y="0" type="line"/>
			<point x="1169" y="825" type="line"/>
			<point x="890" y="825" type="line"/>
			<point x="809" y="320" type="line"/>
			<point x="812" y="320" type="line"/>
			<point x="673" y="825" type="line"/>
			<point x="502" y="825" type="line"/>
			<point x="363" y="320" type="line"/>
			<point x="366" y="320" type="line"/>
			<point x="285" y="825" type="line"/>
			<point x="6" y="825" type="line"/>
			<point x="205" y="0" type="line"/>
			<point x="493" y="0" type="line"/>
			<point x="609" y="489" type="line"/>
			<point x="567" y="489" type="line"/>
		</contour>
	</outline>
</glyph>
<glyph name="X" format="2">
	<advance width="957"/>
	<unicode hex="0058"/>
	<anchor x="454" y="825" name="top"/>
	<anchor x="454" y="0" name="bottom"/>
	<outline>
		<contour>
			<point x="922" y="0" type="line"/>
			<point x="606" y="444" type="line"/>
			<point x="866" y="825" type="line"/>
			<point x="572" y="825" type="line"/>
			<point x="456" y="630" type="line"/>
			<point x="340" y="825" type="line"/>
			<point x="31" y="825" type="line"/>
			<point x="297" y="444" type="line"/>
			<point x="5" y="0" type="line"/>
			<point x="297" y="0" type="line"/>
			<point x="446" y="241" type="line"/>
			<point x="605" y="0" type="line"/>
		</contour>
	</outline>
</glyph>
<glyph name="Y" format="2">
	<advance width="791"/>
	<unicode hex="0059"/>
	<anchor x="374" y="825" name="top"/>
	<anchor x="374" y="0" name="bottom"/>
	<anchor x="-6" y="825" name="topleft"/>
	<outline>
		<contour>
			<point x="-36" y="825" type="line"/>
			<point x="253" y="297" type="line"/>
			<point x="253" y="0" type="line"/>
			<point x="495" y="0" type="line"/>
			<point x="495" y="297" type="line"/>
			<point x="783" y="825" type="line"/>
			<point x="490" y="825" type="line"/>
			<point x="374" y="572" type="line"/>
			<point x="258" y="825" type="line"/>
		</contour>
	</outline>
</glyph>
<glyph name="Z" format="2">
	<advance width="824"/>
	<unicode hex="005A"/>
	<anchor x="390" y="825" name="top"/>
	<anchor x="390" y="0" name="bottom"/>
	<outline>
		<contour>
			<point x="785" y="825" type="line"/>
			<point x="52" y="825" type="line"/>
			<point x="52" y="615" type="line"/>
			<point x="363" y="615" type="line"/>
			<point x="-6" y="0" type="line"/>
			<point x="758" y="0" type="line"/>
			<point x="758" y="210" type="line"/>
			<point x="413" y="210" type="line"/>
		</contour>
	</outline>
</glyph>
<glyph name="bracketleft" format="2">
	<advance width="467"/>
	<unicode hex="005B"/>
	<outline>
		<contour>
			<point x="47" y="860" type="line"/>
			<point x="47" y="-260" type="line"/>
			<point x="405" y="-260" type="line"/>
			<point x="405" y="-90" type="line"/>
			<point x="236" y="-90" type="line"/>
			<point x="236" y="690" type="line"/>
			<point x="405" y="690" type="line"/>
			<point x="405" y="860" type="line"/>
		</contour>
	</outline>
</glyph>
<glyph name="backslash" format="2">
	<advance width="636"/>
	<unicode hex="005C"/>
	<outline>
		<contour>
			<point x="422" y="0" type="line"/>
			<point x="611" y="0" type="line"/>
			<point x="199" y="860" type="line"/>
			<point x="10" y="860" type="line"/>
		</contour>
	</outline>
</glyph>
<glyph name="asciicircum" format="2">
	<advance width="521"/>
	<unicode hex="005E"/>
	<outline>
		<contour>
			<point x="319" y="605" type="line"/>
			<point x="520" y="605" type="line"/>
			<point x="309" y="840" type="line"/>
			<point x="198" y="840" type="line"/>
			<point x="-13" y="605" type="line"/>
			<point x="189" y="605" type="line"/>
			<point x="253" y="678" type="line"/>
		</contour>
	</outline>
</glyph>
<glyph name="underscore" format="2">
	<advance width="538"/>
	<unicode hex="005F"/>
	<outline>
		<contour>
			<point x="2" y="-6" type="line"/>
			<point x="2" y="-139" type="line"/>
			<point x="532" y="-139" type="line"/>
			<point x="532" y="-6" type="line"/>
		</contour>
	</outline>
</glyph>
<glyph name="grave" format="2">
	<advance width="413"/>
	<unicode hex="0060"/>
	<outline>
		<contour>
			<point x="34" y="716" type="line"/>
			<point x="288" y="573" type="line"/>
			<point x="356" y="667" type="line"/>
			<point x="144" y="855" type="line"/>
		</contour>
	</outline>
</glyph>
<glyph name="a" format="2">
	<advance width="734"/>
	<unicode hex="0061"/>
	<anchor x="643" y="10" name="ogonek"/>
	<anchor x="356" y="0" name="bottom"/>
	<anchor x="356" y="513" name="top"/>
	<outline>
		<contour>
			<point x="431" y="72" type="curve"/>
			<point x="431" y="0" type="line"/>
			<point x="674" y="0" type="line"/>
			<point x="674" y="513" type="line"/>
			<point x="429" y="513" type="line"/>
			<point x="429" y="453" type="line"/>
			<point x="407" y="485"/>
			<point x="354" y="528"/>
			<point x="266" y="528" type="curve"/>
			<point x="112" y="528"/>
			<point x="20" y="397"/>
			<point x="20" y="256" type="curve"/>
			<point x="20" y="115"/>
			<point x="112" y="-15"/>
			<point x="266" y="-15" type="curve"/>
			<point x="358" y="-15"/>
			<point x="418" y="49"/>
		</contour>
		<contour>
			<point x="261" y="256" type="curve"/>
			<point x="261" y="256" type="line"/>
			<point x="261" y="299"/>
			<point x="295" y="338"/>
			<point x="345" y="338" type="curve"/>
			<point x="395" y="338"/>
			<point x="429" y="299"/>
			<point x="429" y="256" type="curve"/>
			<point x="429" y="213"/>
			<point x="395" y="175"/>
			<point x="345" y="175" type="curve"/>
			<point x="295" y="175"/>
			<point x="261" y="213"/>
		</contour>
	</outline>
</glyph>
<glyph name="b" format="2">
	<advance width="728"/>
	<unicode hex="0062"/>
	<anchor x="367" y="900" name="top"/>
	<anchor x="367" y="0" name="bottom"/>
	<outline>
		<contour>
			<point x="40" y="860" type="line"/>
			<point x="40" y="0" type="line"/>
			<point x="283" y="0" type="line"/>
			<point x="283" y="72" type="line"/>
			<point x="316" y="21"/>
			<point x="383" y="-15"/>
			<point x="450" y="-15" type="curve"/>
			<point x="604" y="-15"/>
			<point x="694" y="115"/>
			<point x="694" y="256" type="curve"/>
			<point x="694" y="397"/>
			<point x="604" y="528"/>
			<point x="450" y="528" type="curve"/>
			<point x="362" y="528"/>
			<point x="299" y="485"/>
			<point x="285" y="453" type="curve"/>
			<point x="285" y="860" type="line"/>
		</contour>
		<contour>
			<point x="453" y="256" type="curve"/>
			<point x="453" y="256" type="line"/>
			<point x="453" y="213"/>
			<point x="419" y="175"/>
			<point x="369" y="175" type="curve"/>
			<point x="319" y="175"/>
			<point x="285" y="213"/>
			<point x="285" y="256" type="curve"/>
			<point x="285" y="299"/>
			<point x="319" y="338"/>
			<point x="369" y="338" type="curve"/>
			<point x="419" y="338"/>
			<point x="453" y="299"/>
		</contour>
	</outline>
</glyph>
<glyph name="c" format="2">
	<advance width="542"/>
	<unicode hex="0063"/>
	<anchor x="269" y="513" name="top"/>
	<anchor x="269" y="0" name="bottom"/>
	<outline>
		<contour>
			<point x="347" y="175" type="curve"/>
			<point x="347" y="175" type="line"/>
			<point x="298" y="175"/>
			<point x="264" y="215"/>
			<point x="264" y="257" type="curve"/>
			<point x="264" y="298"/>
			<point x="298" y="338"/>
			<point x="347" y="338" type="curve"/>
			<point x="385" y="338"/>
			<point x="410" y="319"/>
			<point x="418" y="312" type="curve"/>
			<point x="531" y="477" type="line"/>
			<point x="507" y="497"/>
			<point x="437" y="528"/>
			<point x="346" y="528" type="curve"/>
			<point x="144" y="528"/>
			<point x="29" y="416"/>
			<point x="29" y="257" type="curve"/>
			<point x="29" y="98"/>
			<point x="144" y="-15"/>
			<point x="346" y="-15" type="curve"/>
			<point x="440" y="-15"/>
			<point x="504" y="18"/>
			<point x="529" y="39" type="curve"/>
			<point x="418" y="203" type="line"/>
			<point x="407" y="192"/>
			<point x="382" y="175"/>
		</contour>
	</outline>
</glyph>
<glyph name="e" format="2">
	<advance width="642"/>
	<unicode hex="0065"/>
	<anchor x="561" y="10" name="ogonek"/>
	<anchor x="315" y="0" name="bottom"/>
	<anchor x="315" y="513" name="top"/>
	<outline>
		<contour>
			<point x="253" y="208" type="curve"/>
			<point x="253" y="208" type="line"/>
			<point x="600" y="208" type="line"/>
			<point x="602" y="214"/>
			<point x="602" y="240"/>
			<point x="602" y="247" type="curve"/>
			<point x="602" y="440"/>
			<point x="490" y="528"/>
			<point x="311" y="528" type="curve"/>
			<point x="126" y="528"/>
			<point x="20" y="411"/>
			<point x="20" y="262" type="curve"/>
			<point x="20" y="71"/>
			<point x="157" y="-15"/>
			<point x="331" y="-15" type="curve"/>
			<point x="486" y="-15"/>
			<point x="549" y="17"/>
			<point x="573" y="32" type="curve"/>
			<point x="485" y="186" type="line"/>
			<point x="458" y="168"/>
			<point x="403" y="161"/>
			<point x="348" y="161" type="curve"/>
			<point x="297" y="161"/>
			<point x="259" y="178"/>
		</contour>
		<contour>
			<point x="370" y="309" type="curve"/>
			<point x="370" y="309" type="line"/>
			<point x="258" y="309" type="line"/>
			<point x="259" y="354"/>
			<point x="286" y="370"/>
			<point x="315" y="370" type="curve"/>
			<point x="347" y="370"/>
			<point x="368" y="350"/>
		</contour>
	</outline>
</glyph>
<glyph name="f" format="2">
	<advance width="464"/>
	<unicode hex="0066"/>
	<anchor x="221" y="900" name="top"/>
	<anchor x="221" y="0" name="bottom"/>
	<outline>
		<contour>
			<point x="81" y="513" type="line"/>
			<point x="10" y="513" type="line"/>
			<point x="10" y="313" type="line"/>
			<point x="81" y="313" type="line"/>
			<point x="81" y="0" type="line"/>
			<point x="327" y="0" type="line"/>
			<point x="327" y="313" type="line"/>
			<point x="441" y="313" type="line"/>
			<point x="441" y="513" type="line"/>
			<point x="327" y="513" type="line"/>
			<point x="327" y="622" type="line" smooth="yes"/>
			<point x="327" y="656"/>
			<point x="346" y="668"/>
			<point x="364" y="668" type="curve"/>
			<point x="383" y="668"/>
			<point x="397" y="652"/>
			<point x="401" y="645" type="curve"/>
			<point x="494" y="823" type="line"/>
			<point x="479" y="838"/>
			<point x="429" y="875"/>
			<point x="326" y="875" type="curve"/>
			<point x="202" y="875"/>
			<point x="81" y="787"/>
			<point x="81" y="642" type="curve"/>
		</contour>
	</outline>
</glyph>
<glyph name="g" format="2">
	<advance width="734"/>
	<unicode hex="0067"/>
	<anchor x="354" y="513" name="top"/>
	<anchor x="354" y="-260" name="bottom"/>
	<outline>
		<contour>
			<point x="330" y="-275" type="curve"/>
			<point x="330" y="-275" type="line"/>
			<point x="523" y="-275"/>
			<point x="674" y="-187"/>
			<point x="674" y="-14" type="curve"/>
			<point x="674" y="10" type="line"/>
			<point x="431" y="10" type="line"/>
			<point x="431" y="0" type="line" smooth="yes"/>
			<point x="431" y="-65"/>
			<point x="382" y="-86"/>
			<point x="318" y="-86" type="curve"/>
			<point x="247" y="-86"/>
			<point x="199" y="-56"/>
			<point x="167" y="-21" type="curve"/>
			<point x="28" y="-170" type="line"/>
			<point x="103" y="-260"/>
			<point x="231" y="-275"/>
		</contour>
		<component base="a"/>
	</outline>
</glyph>
<glyph name="h" format="2">
	<advance width="725"/>
	<unicode hex="0068"/>
	<anchor x="353" y="450" name="center"/>
	<anchor x="353" y="0" name="bottom"/>
	<anchor x="353" y="900" name="top"/>
	<outline>
		<contour>
			<point x="447" y="528" type="curve"/>
			<point x="447" y="528" type="line"/>
			<point x="366" y="528"/>
			<point x="297" y="488"/>
			<point x="281" y="449" type="curve"/>
			<point x="281" y="860" type="line"/>
			<point x="35" y="860" type="line"/>
			<point x="35" y="0" type="line"/>
			<point x="281" y="0" type="line"/>
			<point x="281" y="270" type="line" smooth="yes"/>
			<point x="281" y="323"/>
			<point x="322" y="357"/>
			<point x="366" y="357" type="curve"/>
			<point x="410" y="357"/>
			<point x="434" y="323"/>
			<point x="434" y="270" type="curve"/>
			<point x="434" y="0" type="line"/>
			<point x="680" y="0" type="line"/>
			<point x="680" y="308" type="line" smooth="yes"/>
			<point x="680" y="465"/>
			<point x="560" y="528"/>
		</contour>
	</outline>
</glyph>
<glyph name="i" format="2">
	<advance width="355"/>
	<unicode hex="0069"/>
	<anchor x="172" y="0" name="bottom"/>
	<outline>
		<contour>
			<point x="46" y="513" type="line"/>
			<point x="46" y="0" type="line"/>
			<point x="292" y="0" type="line"/>
			<point x="292" y="513" type="line"/>
		</contour>
		<contour>
			<point x="172" y="570" type="curve"/>
			<point x="172" y="570" type="line"/>
			<point x="245" y="570"/>
			<point x="305" y="630"/>
			<point x="305" y="702" type="curve"/>
			<point x="305" y="775"/>
			<point x="244" y="835"/>
			<point x="172" y="835" type="curve"/>
			<point x="99" y="835"/>
			<point x="40" y="774"/>
			<point x="40" y="702" type="curve"/>
			<point x="40" y="630"/>
			<point x="99" y="570"/>
		</contour>
	</outline>
</glyph>
<glyph name="j" format="2">
	<advance width="362"/>
	<unicode hex="006A"/>
	<outline>
		<contour>
			<point x="68" y="-275" type="curve"/>
			<point x="68" y="-275" type="line"/>
			<point x="225" y="-275"/>
			<point x="296" y="-176"/>
			<point x="296" y="-57" type="curve"/>
			<point x="296" y="513" type="line"/>
			<point x="50" y="513" type="line"/>
			<point x="50" y="-25" type="line" smooth="yes"/>
			<point x="50" y="-59"/>
			<point x="29" y="-71"/>
			<point x="10" y="-71" type="curve"/>
			<point x="-3" y="-71"/>
			<point x="-19" y="-68"/>
			<point x="-34" y="-57" type="curve"/>
			<point x="-105" y="-238" type="line"/>
			<point x="-75" y="-255"/>
			<point x="-20" y="-275"/>
		</contour>
		<contour>
			<point x="174" y="570" type="curve"/>
			<point x="174" y="570" type="line"/>
			<point x="247" y="570"/>
			<point x="307" y="630"/>
			<point x="307" y="702" type="curve"/>
			<point x="307" y="775"/>
			<point x="246" y="835"/>
			<point x="174" y="835" type="curve"/>
			<point x="101" y="835"/>
			<point x="42" y="774"/>
			<point x="42" y="702" type="curve"/>
			<point x="42" y="630"/>
			<point x="101" y="570"/>
		</contour>
	</outline>
</glyph>
<glyph name="k" format="2">
	<advance width="711"/>
	<unicode hex="006B"/>
	<anchor x="349" y="900" name="top"/>
	<anchor x="349" y="0" name="bottom"/>
	<outline>
		<contour>
			<point x="692" y="513" type="line"/>
			<point x="419" y="513" type="line"/>
			<point x="271" y="352" type="line"/>
			<point x="271" y="860" type="line"/>
			<point x="25" y="860" type="line"/>
			<point x="25" y="0" type="line"/>
			<point x="271" y="0" type="line"/>
			<point x="271" y="192" type="line"/>
			<point x="442" y="0" type="line"/>
			<point x="721" y="0" type="line"/>
			<point x="465" y="268" type="line"/>
		</contour>
	</outline>
</glyph>
<glyph name="l" format="2">
	<advance width="342"/>
	<unicode hex="006C"/>
	<anchor x="154" y="653" name="center"/>
	<anchor x="154" y="900" name="top"/>
	<anchor x="306" y="900" name="topright"/>
	<anchor x="164" y="0" name="bottom"/>
	<outline>
		<contour>
			<point x="40" y="0" type="line"/>
			<point x="286" y="0" type="line"/>
			<point x="286" y="860" type="line"/>
			<point x="40" y="860" type="line"/>
		</contour>
	</outline>
</glyph>
<glyph name="m" format="2">
	<advance width="1060"/>
	<unicode hex="006D"/>
	<anchor x="515" y="513" name="top"/>
	<anchor x="515" y="0" name="bottom"/>
	<outline>
		<contour>
			<point x="811" y="528" type="curve"/>
			<point x="811" y="528" type="line"/>
			<point x="722" y="528"/>
			<point x="642" y="482"/>
			<point x="626" y="443" type="curve"/>
			<point x="595" y="498"/>
			<point x="553" y="528"/>
			<point x="464" y="528" type="curve"/>
			<point x="382" y="528"/>
			<point x="300" y="482"/>
			<point x="284" y="444" type="curve"/>
			<point x="284" y="513" type="line"/>
			<point x="40" y="513" type="line"/>
			<point x="40" y="0" type="line"/>
			<point x="284" y="0" type="line"/>
			<point x="284" y="270" type="line" smooth="yes"/>
			<point x="284" y="313"/>
			<point x="305" y="357"/>
			<point x="358" y="357" type="curve"/>
			<point x="411" y="357"/>
			<point x="419" y="314"/>
			<point x="419" y="270" type="curve"/>
			<point x="419" y="0" type="line"/>
			<point x="643" y="0" type="line"/>
			<point x="643" y="270" type="line" smooth="yes"/>
			<point x="643" y="313"/>
			<point x="663" y="357"/>
			<point x="716" y="357" type="curve"/>
			<point x="769" y="357"/>
			<point x="778" y="314"/>
			<point x="778" y="270" type="curve"/>
			<point x="778" y="0" type="line"/>
			<point x="1020" y="0" type="line"/>
			<point x="1020" y="303" type="line" smooth="yes"/>
			<point x="1020" y="460"/>
			<point x="929" y="528"/>
		</contour>
	</outline>
</glyph>
<glyph name="n" format="2">
	<advance width="720"/>
	<unicode hex="006E"/>
	<anchor x="347" y="513" name="top"/>
	<anchor x="347" y="0" name="bottom"/>
	<outline>
		<contour>
			<point x="442" y="528" type="curve"/>
			<point x="442" y="528" type="line"/>
			<point x="361" y="528"/>
			<point x="292" y="488"/>
			<point x="276" y="449" type="curve"/>
			<point x="276" y="513" type="line"/>
			<point x="30" y="513" type="line"/>
			<point x="30" y="0" type="line"/>
			<point x="276" y="0" type="line"/>
			<point x="276" y="270" type="line" smooth="yes"/>
			<point x="276" y="323"/>
			<point x="312" y="357"/>
			<point x="356" y="357" type="curve"/>
			<point x="400" y="357"/>
			<point x="429" y="323"/>
			<point x="429" y="270" type="curve"/>
			<point x="429" y="0" type="line"/>
			<point x="675" y="0" type="line"/>
			<point x="675" y="308" type="line" smooth="yes"/>
			<point x="675" y="465"/>
			<point x="555" y="528"/>
		</contour>
	</outline>
</glyph>
<glyph name="o" format="2">
	<advance width="658"/>
	<unicode hex="006F"/>
	<anchor x="319" y="373" name="center"/>
	<anchor x="574" y="10" name="ogonek"/>
	<anchor x="319" y="513" name="top"/>
	<anchor x="467" y="493" name="topright"/>
	<anchor x="319" y="-116" name="bottom"/>
	<outline>
		<contour>
			<point x="321" y="-15" type="curve"/>
			<point x="321" y="-15" type="line"/>
			<point x="496" y="-15"/>
			<point x="618" y="95"/>
			<point x="618" y="255" type="curve"/>
			<point x="618" y="415"/>
			<point x="496" y="528"/>
			<point x="321" y="528" type="curve"/>
			<point x="146" y="528"/>
			<point x="20" y="415"/>
			<point x="20" y="255" type="curve"/>
			<point x="20" y="95"/>
			<point x="146" y="-15"/>
		</contour>
		<contour>
			<point x="321" y="185" type="curve"/>
			<point x="321" y="185" type="line"/>
			<point x="280" y="185"/>
			<point x="255" y="212"/>
			<point x="255" y="256" type="curve"/>
			<point x="255" y="300"/>
			<point x="280" y="328"/>
			<point x="321" y="328" type="curve"/>
			<point x="362" y="328"/>
			<point x="386" y="300"/>
			<point x="386" y="256" type="curve"/>
			<point x="386" y="212"/>
			<point x="362" y="185"/>
		</contour>
	</outline>
</glyph>
<glyph name="p" format="2">
	<advance width="734"/>
	<unicode hex="0070"/>
	<anchor x="362" y="513" name="top"/>
	<anchor x="362" y="0" name="bottom"/>
	<outline>
		<contour>
			<point x="40" y="-260" type="line"/>
			<point x="283" y="-260" type="line"/>
			<point x="283" y="72" type="line"/>
			<point x="296" y="49"/>
			<point x="346" y="-15"/>
			<point x="448" y="-15" type="curve"/>
			<point x="602" y="-15"/>
			<point x="694" y="115"/>
			<point x="694" y="256" type="curve"/>
			<point x="694" y="397"/>
			<point x="612" y="528"/>
			<point x="458" y="528" type="curve"/>
			<point x="370" y="528"/>
			<point x="307" y="485"/>
			<point x="285" y="453" type="curve"/>
			<point x="285" y="513" type="line"/>
			<point x="40" y="513" type="line"/>
		</contour>
		<contour>
			<point x="453" y="256" type="curve"/>
			<point x="453" y="256" type="line"/>
			<point x="453" y="213"/>
			<point x="419" y="175"/>
			<point x="369" y="175" type="curve"/>
			<point x="319" y="175"/>
			<point x="285" y="213"/>
			<point x="285" y="256" type="curve"/>
			<point x="285" y="299"/>
			<point x="319" y="338"/>
			<point x="369" y="338" type="curve"/>
			<point x="419" y="338"/>
			<point x="453" y="299"/>
		</contour>
	</outline>
</glyph>
<glyph name="r" format="2">
	<advance width="536"/>
	<unicode hex="0072"/>
	<anchor x="254" y="513" name="top"/>
	<anchor x="254" y="0" name="bottom"/>
	<outline>
		<contour>
			<point x="17" y="0" type="line"/>
			<point x="263" y="0" type="line"/>
			<point x="263" y="240" type="line" smooth="yes"/>
			<point x="263" y="281"/>
			<point x="287" y="333"/>
			<point x="360" y="333" type="curve"/>
			<point x="405" y="333"/>
			<point x="436" y="311"/>
			<point x="447" y="295" type="curve"/>
			<point x="541" y="494" type="line"/>
			<point x="520" y="509"/>
			<point x="474" y="528"/>
			<point x="427" y="528" type="curve"/>
			<point x="322" y="528"/>
			<point x="273" y="467"/>
			<point x="260" y="440" type="curve"/>
			<point x="263" y="440" type="line"/>
			<point x="263" y="513" type="line"/>
			<point x="17" y="513" type="line"/>
		</contour>
	</outline>
</glyph>
<glyph name="s" format="2">
	<advance width="561"/>
	<unicode hex="0073"/>
	<anchor x="274" y="513" name="top"/>
	<anchor x="274" y="0" name="bottom"/>
	<outline>
		<contour>
			<point x="300" y="528" type="curve"/>
			<point x="300" y="528" type="line"/>
			<point x="172" y="528"/>
			<point x="49" y="478"/>
			<point x="49" y="367" type="curve"/>
			<point x="49" y="251"/>
			<point x="154" y="213"/>
			<point x="212" y="202" type="curve"/>
			<point x="260" y="193"/>
			<point x="280" y="185"/>
			<point x="280" y="172" type="curve"/>
			<point x="280" y="160"/>
			<point x="261" y="154"/>
			<point x="220" y="154" type="curve"/>
			<point x="170" y="154"/>
			<point x="115" y="183"/>
			<point x="93" y="200" type="curve"/>
			<point x="20" y="42" type="line"/>
			<point x="38" y="28"/>
			<point x="112" y="-15"/>
			<point x="245" y="-15" type="curve"/>
			<point x="359" y="-15"/>
			<point x="521" y="13"/>
			<point x="521" y="173" type="curve"/>
			<point x="521" y="283"/>
			<point x="420" y="319"/>
			<point x="351" y="331" type="curve"/>
			<point x="303" y="339"/>
			<point x="281" y="347"/>
			<point x="281" y="360" type="curve"/>
			<point x="281" y="373"/>
			<point x="302" y="377"/>
			<point x="330" y="377" type="curve"/>
			<point x="381" y="377"/>
			<point x="429" y="353"/>
			<point x="444" y="343" type="curve"/>
			<point x="519" y="485" type="line"/>
			<point x="505" y="495"/>
			<point x="413" y="528"/>
		</contour>
	</outline>
</glyph>
<glyph name="t" format="2">
	<advance width="482"/>
	<unicode hex="0074"/>
	<anchor x="190" y="373" name="center"/>
	<anchor x="212" y="647" name="top"/>
	<anchor x="403" y="513" name="topright"/>
	<anchor x="260" y="-5" name="bottom"/>
	<outline>
		<contour>
			<point x="78" y="513" type="line"/>
			<point x="0" y="513" type="line"/>
			<point x="0" y="313" type="line"/>
			<point x="78" y="313" type="line"/>
			<point x="78" y="180" type="line" smooth="yes"/>
			<point x="78" y="48"/>
			<point x="161" y="-15"/>
			<point x="280" y="-15" type="curve"/>
			<point x="379" y="-15"/>
			<point x="461" y="20"/>
			<point x="472" y="29" type="curve"/>
			<point x="392" y="202" type="line"/>
			<point x="389" y="198"/>
			<point x="371" y="187"/>
			<point x="355" y="187" type="curve"/>
			<point x="324" y="187"/>
			<point x="321" y="217"/>
			<point x="321" y="247" type="curve"/>
			<point x="321" y="313" type="line"/>
			<point x="425" y="313" type="line"/>
			<point x="425" y="513" type="line"/>
			<point x="321" y="513" type="line"/>
			<point x="321" y="724" type="line"/>
			<point x="78" y="724" type="line"/>
		</contour>
	</outline>
</glyph>
<glyph name="u" format="2">
	<advance width="716"/>
	<unicode hex="0075"/>
	<anchor x="631" y="10" name="ogonek"/>
	<anchor x="350" y="513" name="top"/>
	<anchor x="666" y="513" name="topright"/>
	<anchor x="350" y="0" name="bottom"/>
	<outline>
		<contour>
			<point x="277" y="290" type="curve"/>
			<point x="277" y="290" type="line"/>
			<point x="277" y="513" type="line"/>
			<point x="35" y="513" type="line"/>
			<point x="35" y="266" type="line" smooth="yes"/>
			<point x="35" y="91"/>
			<point x="150" y="-15"/>
			<point x="350" y="-15" type="curve"/>
			<point x="551" y="-15"/>
			<point x="666" y="91"/>
			<point x="666" y="266" type="curve"/>
			<point x="666" y="513" type="line"/>
			<point x="424" y="513" type="line"/>
			<point x="424" y="290" type="line" smooth="yes"/>
			<point x="424" y="226"/>
			<point x="408" y="185"/>
			<point x="350" y="185" type="curve"/>
			<point x="293" y="185"/>
			<point x="277" y="226"/>
		</contour>
	</outline>
</glyph>
<glyph name="v" format="2">
	<advance width="728"/>
	<unicode hex="0076"/>
	<anchor x="357" y="513" name="top"/>
	<anchor x="357" y="0" name="bottom"/>
	<outline>
		<contour>
			<point x="263" y="513" type="line"/>
			<point x="0" y="513" type="line"/>
			<point x="213" y="0" type="line"/>
			<point x="501" y="0" type="line"/>
			<point x="713" y="513" type="line"/>
			<point x="451" y="513" type="line"/>
			<point x="357" y="222" type="line"/>
		</contour>
	</outline>
</glyph>
<glyph name="w" format="2">
	<advance width="971"/>
	<unicode hex="0077"/>
	<anchor x="478" y="513" name="top"/>
	<anchor x="478" y="0" name="bottom"/>
	<outline>
		<contour>
			<point x="366" y="0" type="line"/>
			<point x="478" y="237" type="line"/>
			<point x="591" y="0" type="line"/>
			<point x="808" y="0" type="line"/>
			<point x="998" y="513" type="line"/>
			<point x="737" y="513" type="line"/>
			<point x="662" y="262" type="line"/>
			<point x="553" y="503" type="line"/>
			<point x="404" y="503" type="line"/>
			<point x="293" y="262" type="line"/>
			<point x="219" y="513" type="line"/>
			<point x="-42" y="513" type="line"/>
			<point x="149" y="0" type="line"/>
		</contour>
	</outline>
</glyph>
<glyph name="x" format="2">
	<advance width="714"/>
	<unicode hex="0078"/>
	<anchor x="352" y="513" name="top"/>
	<anchor x="352" y="0" name="bottom"/>
	<outline>
		<contour>
			<point x="704" y="0" type="line"/>
			<point x="489" y="278" type="line"/>
			<point x="673" y="513" type="line"/>
			<point x="428" y="513" type="line"/>
			<point x="358" y="413" type="line"/>
			<point x="294" y="513" type="line"/>
			<point x="21" y="513" type="line"/>
			<point x="215" y="258" type="line"/>
			<point x="0" y="0" type="line"/>
			<point x="250" y="0" type="line"/>
			<point x="342" y="126" type="line"/>
			<point x="433" y="0" type="line"/>
		</contour>
	</outline>
</glyph>
<glyph name="y" format="2">
	<advance width="689"/>
	<unicode hex="0079"/>
	<anchor x="337" y="513" name="top"/>
	<anchor x="337" y="0" name="bottom"/>
	<outline>
		<contour>
			<point x="449" y="513" type="line"/>
			<point x="334" y="210" type="line"/>
			<point x="234" y="513" type="line"/>
			<point x="-10" y="513" type="line"/>
			<point x="206" y="0" type="line"/>
			<point x="86" y="-260" type="line"/>
			<point x="331" y="-260" type="line"/>
			<point x="689" y="513" type="line"/>
		</contour>
	</outline>
</glyph>
<glyph name="z" format="2">
	<advance width="586"/>
	<unicode hex="007A"/>
	<anchor x="287" y="513" name="top"/>
	<anchor x="287" y="0" name="bottom"/>
	<outline>
		<contour>
			<point x="584" y="513" type="line"/>
			<point x="34" y="513" type="line"/>
			<point x="34" y="347" type="line"/>
			<point x="209" y="347" type="line"/>
			<point x="-12" y="0" type="line"/>
			<point x="559" y="0" type="line"/>
			<point x="559" y="167" type="line"/>
			<point x="363" y="167" type="line"/>
		</contour>
	</outline>
</glyph>
<glyph name="braceleft" format="2">
	<advance width="471"/>
	<unicode hex="007B"/>
	<outline>
		<contour>
			<point x="49" y="372" type="curve"/>
			<point x="49" y="372" type="line"/>
			<point x="49" y="228" type="line"/>
			<point x="83" y="228"/>
			<point x="115" y="214"/>
			<point x="115" y="168" type="curve"/>
			<point x="115" y="-79" type="line" smooth="yes"/>
			<point x="115" y="-162"/>
			<point x="164" y="-260"/>
			<point x="292" y="-260" type="curve"/>
			<point x="406" y="-260" type="line"/>
			<point x="406" y="-85" type="line"/>
			<point x="358" y="-85" type="line" smooth="yes"/>
			<point x="321" y="-85"/>
			<point x="303" y="-67"/>
			<point x="303" y="-27" type="curve"/>
			<point x="303" y="193" type="line" smooth="yes"/>
			<point x="303" y="245"/>
			<point x="289" y="276"/>
			<point x="227" y="300" type="curve"/>
			<point x="286" y="323"/>
			<point x="303" y="350"/>
			<point x="303" y="407" type="curve"/>
			<point x="303" y="627" type="line" smooth="yes"/>
			<point x="303" y="667"/>
			<point x="321" y="685"/>
			<point x="358" y="685" type="curve"/>
			<point x="406" y="685" type="line"/>
			<point x="406" y="860" type="line"/>
			<point x="292" y="860" type="line" smooth="yes"/>
			<point x="164" y="860"/>
			<point x="115" y="762"/>
			<point x="115" y="679" type="curve"/>
			<point x="115" y="432" type="line" smooth="yes"/>
			<point x="115" y="386"/>
			<point x="83" y="372"/>
		</contour>
	</outline>
</glyph>
<glyph name="bar" format="2">
	<advance width="298"/>
	<unicode hex="007C"/>
	<outline>
		<contour>
			<point x="38" y="-161" type="line"/>
			<point x="256" y="-161" type="line"/>
			<point x="256" y="890" type="line"/>
			<point x="38" y="890" type="line"/>
		</contour>
	</outline>
</glyph>
<glyph name="asciitilde" format="2">
	<advance width="719"/>
	<unicode hex="007E"/>
	<outline>
		<contour>
			<point x="659" y="440" type="curve"/>
			<point x="659" y="440" type="line"/>
			<point x="528" y="527" type="line"/>
			<point x="510" y="502"/>
			<point x="473" y="470"/>
			<point x="438" y="470" type="curve"/>
			<point x="393" y="470"/>
			<point x="345" y="537"/>
			<point x="245" y="537" type="curve"/>
			<point x="164" y="537"/>
			<point x="83" y="454"/>
			<point x="45" y="391" type="curve"/>
			<point x="175" y="305" type="line"/>
			<point x="193" y="329"/>
			<point x="230" y="361"/>
			<point x="265" y="361" type="curve"/>
			<point x="310" y="361"/>
			<point x="362" y="294"/>
			<point x="459" y="294" type="curve"/>
			<point x="540" y="294"/>
			<point x="621" y="377"/>
		</contour>
	</outline>
</glyph>
<glyph name="cent" format="2">
	<advance width="542"/>
	<unicode hex="00A2"/>
	<outline>
		<contour>
			<point x="384" y="636" type="line"/>
			<point x="250" y="636" type="line"/>
			<point x="250" y="494" type="line"/>
			<point x="384" y="494" type="line"/>
		</contour>
		<contour>
			<point x="384" y="13" type="line"/>
			<point x="250" y="13" type="line"/>
			<point x="250" y="-129" type="line"/>
			<point x="384" y="-129" type="line"/>
		</contour>
		<component base="c"/>
	</outline>
</glyph>
<glyph name="sterling" format="2">
	<advance width="774"/>
	<unicode hex="00A3"/>
	<outline>
		<contour>
			<point x="149" y="406" type="curve"/>
			<point x="149" y="406" type="line"/>
			<point x="186" y="344"/>
			<point x="215" y="277"/>
			<point x="215" y="243" type="curve"/>
			<point x="215" y="219"/>
			<point x="211" y="208"/>
			<point x="200" y="191" type="curve"/>
			<point x="105" y="191"/>
			<point x="29" y="115"/>
			<point x="29" y="0" type="curve"/>
			<point x="197" y="0" type="line"/>
			<point x="204" y="10"/>
			<point x="220" y="24"/>
			<point x="240" y="24" type="curve"/>
			<point x="335" y="24"/>
			<point x="390" y="-15"/>
			<point x="515" y="-15" type="curve"/>
			<point x="641" y="-15"/>
			<point x="711" y="74"/>
			<point x="728" y="142" type="curve"/>
			<point x="535" y="211" type="line"/>
			<point x="534" y="208"/>
			<point x="519" y="165"/>
			<point x="482" y="165" type="curve"/>
			<point x="438" y="165"/>
			<point x="408" y="179"/>
			<point x="397" y="179" type="curve"/>
			<point x="401" y="185"/>
			<point x="414" y="220"/>
			<point x="414" y="251" type="curve"/>
			<point x="414" y="294"/>
			<point x="406" y="342"/>
			<point x="378" y="406" type="curve"/>
			<point x="364" y="438"/>
			<point x="335" y="514"/>
			<point x="335" y="568" type="curve"/>
			<point x="335" y="616"/>
			<point x="354" y="651"/>
			<point x="399" y="651" type="curve"/>
			<point x="453" y="651"/>
			<point x="474" y="588"/>
			<point x="474" y="540" type="curve"/>
			<point x="672" y="638" type="line"/>
			<point x="659" y="725"/>
			<point x="573" y="841"/>
			<point x="389" y="841" type="curve"/>
			<point x="204" y="841"/>
			<point x="99" y="728"/>
			<point x="99" y="578" type="curve"/>
			<point x="99" y="502"/>
			<point x="125" y="446"/>
		</contour>
		<contour>
			<point x="525" y="414" type="line"/>
			<point x="45" y="414" type="line"/>
			<point x="45" y="281" type="line"/>
			<point x="525" y="281" type="line"/>
		</contour>
	</outline>
</glyph>
<glyph name="currency" format="2">
	<advance width="678"/>
	<unicode hex="00A4"/>
	<outline>
		<contour>
			<point x="660" y="576" type="line"/>
			<point x="565" y="670" type="line"/>
			<point x="465" y="570" type="line"/>
			<point x="559" y="475" type="line"/>
		</contour>
		<contour>
			<point x="219" y="135" type="line"/>
			<point x="125" y="230" type="line"/>
			<point x="24" y="129" type="line"/>
			<point x="119" y="35" type="line"/>
		</contour>
		<contour>
			<point x="219" y="570" type="line"/>
			<point x="119" y="670" type="line"/>
			<point x="24" y="576" type="line"/>
			<point x="125" y="475" type="line"/>
		</contour>
		<contour>
			<point x="660" y="129" type="line"/>
			<point x="559" y="230" type="line"/>
			<point x="465" y="135" type="line"/>
			<point x="565" y="35" type="line"/>
		</contour>
		<component base="o" xOffset="20" yOffset="100"/>
	</outline>
</glyph>
<glyph name="yen" format="2">
	<advance width="791"/>
	<unicode hex="00A5"/>
	<outline>
		<contour>
			<point x="697" y="462" type="line"/>
			<point x="52" y="462" type="line"/>
			<point x="52" y="318" type="line"/>
			<point x="697" y="318" type="line"/>
		</contour>
		<contour>
			<point x="697" y="247" type="line"/>
			<point x="52" y="247" type="line"/>
			<point x="52" y="103" type="line"/>
			<point x="697" y="103" type="line"/>
		</contour>
		<component base="Y"/>
	</outline>
</glyph>
<glyph name="section" format="2">
	<advance width="665"/>
	<unicode hex="00A7"/>
	<outline>
		<contour>
			<point x="294" y="-275" type="curve"/>
			<point x="294" y="-275" type="line"/>
			<point x="470" y="-275"/>
			<point x="586" y="-188"/>
			<point x="586" y="-56" type="curve"/>
			<point x="586" y="25"/>
			<point x="555" y="84"/>
			<point x="490" y="122" type="curve"/>
			<point x="583" y="163"/>
			<point x="640" y="225"/>
			<point x="640" y="317" type="curve"/>
			<point x="640" y="431"/>
			<point x="556" y="506"/>
			<point x="430" y="550" type="curve"/>
			<point x="310" y="592"/>
			<point x="307" y="611"/>
			<point x="307" y="625" type="curve"/>
			<point x="307" y="637"/>
			<point x="317" y="647"/>
			<point x="339" y="647" type="curve"/>
			<point x="364" y="647"/>
			<point x="381" y="622"/>
			<point x="387" y="604" type="curve"/>
			<point x="596" y="648" type="line"/>
			<point x="582" y="731"/>
			<point x="502" y="840"/>
			<point x="337" y="840" type="curve"/>
			<point x="162" y="840"/>
			<point x="60" y="740"/>
			<point x="60" y="622" type="curve"/>
			<point x="60" y="547"/>
			<point x="99" y="483"/>
			<point x="159" y="440" type="curve"/>
			<point x="96" y="419"/>
			<point x="6" y="335"/>
			<point x="6" y="244" type="curve"/>
			<point x="6" y="137"/>
			<point x="63" y="63"/>
			<point x="190" y="20" type="curve"/>
			<point x="301" y="-18"/>
			<point x="332" y="-41"/>
			<point x="332" y="-58" type="curve"/>
			<point x="332" y="-77"/>
			<point x="318" y="-82"/>
			<point x="294" y="-82" type="curve"/>
			<point x="255" y="-82"/>
			<point x="234" y="-49"/>
			<point x="228" y="-24" type="curve"/>
			<point x="14" y="-78" type="line"/>
			<point x="28" y="-163"/>
			<point x="114" y="-275"/>
		</contour>
		<contour>
			<point x="281" y="362" type="curve"/>
			<point x="281" y="362" type="line"/>
			<point x="281" y="362"/>
			<point x="318" y="345"/>
			<point x="318" y="345" type="curve"/>
			<point x="367" y="322"/>
			<point x="420" y="292"/>
			<point x="420" y="264" type="curve"/>
			<point x="420" y="229"/>
			<point x="396" y="210"/>
			<point x="350" y="199" type="curve"/>
			<point x="344" y="203"/>
			<point x="328" y="211"/>
			<point x="325" y="212" type="curve"/>
			<point x="275" y="234"/>
			<point x="226" y="256"/>
			<point x="226" y="294" type="curve"/>
			<point x="226" y="324"/>
			<point x="246" y="352"/>
		</contour>
	</outline>
</glyph>
<glyph name="dieresis" format="2">
	<advance width="586"/>
	<unicode hex="00A8"/>
	<outline>
		<contour>
			<point x="157" y="808" type="curve"/>
			<point x="157" y="808" type="line"/>
			<point x="96" y="808"/>
			<point x="48" y="759"/>
			<point x="48" y="699" type="curve"/>
			<point x="48" y="639"/>
			<point x="96" y="590"/>
			<point x="157" y="590" type="curve"/>
			<point x="217" y="590"/>
			<point x="265" y="639"/>
			<point x="265" y="699" type="curve"/>
			<point x="265" y="759"/>
			<point x="217" y="808"/>
		</contour>
		<contour>
			<point x="414" y="808" type="curve"/>
			<point x="414" y="808" type="line"/>
			<point x="353" y="808"/>
			<point x="305" y="759"/>
			<point x="305" y="699" type="curve"/>
			<point x="305" y="639"/>
			<point x="353" y="590"/>
			<point x="414" y="590" type="curve"/>
			<point x="474" y="590"/>
			<point x="522" y="639"/>
			<point x="522" y="699" type="curve"/>
			<point x="522" y="759"/>
			<point x="474" y="808"/>
		</contour>
	</outline>
</glyph>
<glyph name="copyright" format="2">
	<advance width="926"/>
	<unicode hex="00A9"/>
	<outline>
		<contour>
			<point x="28" y="412" type="curve"/>
			<point x="28" y="412" type="line"/>
			<point x="28" y="177"/>
			<point x="220" y="-15"/>
			<point x="455" y="-15" type="curve"/>
			<point x="691" y="-15"/>
			<point x="883" y="177"/>
			<point x="883" y="412" type="curve"/>
			<point x="883" y="648"/>
			<point x="691" y="840"/>
			<point x="455" y="840" type="curve"/>
			<point x="220" y="840"/>
			<point x="28" y="648"/>
		</contour>
		<contour>
			<point x="166" y="412" type="curve"/>
			<point x="166" y="412" type="line"/>
			<point x="166" y="572"/>
			<point x="296" y="702"/>
			<point x="455" y="702" type="curve"/>
			<point x="615" y="702"/>
			<point x="745" y="572"/>
			<point x="745" y="412" type="curve"/>
			<point x="745" y="253"/>
			<point x="615" y="123"/>
			<point x="455" y="123" type="curve"/>
			<point x="296" y="123"/>
			<point x="166" y="253"/>
		</contour>
		<contour>
			<point x="492" y="492" type="curve"/>
			<point x="492" y="492" type="line"/>
			<point x="450" y="492"/>
			<point x="421" y="452"/>
			<point x="421" y="414" type="curve"/>
			<point x="421" y="374"/>
			<point x="450" y="334"/>
			<point x="492" y="334" type="curve"/>
			<point x="517" y="334"/>
			<point x="536" y="343"/>
			<point x="540" y="346" type="curve"/>
			<point x="593" y="238" type="line"/>
			<point x="593" y="238"/>
			<point x="538" y="205"/>
			<point x="462" y="205" type="curve"/>
			<point x="349" y="205"/>
			<point x="244" y="297"/>
			<point x="244" y="412" type="curve"/>
			<point x="244" y="529"/>
			<point x="349" y="623"/>
			<point x="462" y="623" type="curve"/>
			<point x="547" y="623"/>
			<point x="590" y="591"/>
			<point x="593" y="588" type="curve"/>
			<point x="542" y="482" type="line"/>
			<point x="542" y="482"/>
			<point x="510" y="492"/>
		</contour>
	</outline>
</glyph>
<glyph name="ordfeminine" format="2">
	<advance width="537"/>
	<unicode hex="00AA"/>
	<outline>
		<contour>
			<point x="65" y="671" type="curve"/>
			<point x="65" y="671" type="line"/>
			<point x="65" y="586"/>
			<point x="126" y="504"/>
			<point x="222" y="504" type="curve"/>
			<point x="261" y="504"/>
			<point x="295" y="517"/>
			<point x="325" y="545" type="curve"/>
			<point x="326" y="545" type="line"/>
			<point x="326" y="513" type="line"/>
			<point x="458" y="513" type="line"/>
			<point x="458" y="830" type="line"/>
			<point x="325" y="830" type="line"/>
			<point x="325" y="806" type="line"/>
			<point x="289" y="833"/>
			<point x="258" y="840"/>
			<point x="222" y="840" type="curve"/>
			<point x="126" y="840"/>
			<point x="65" y="757"/>
		</contour>
		<contour>
			<point x="210" y="671" type="curve"/>
			<point x="210" y="671" type="line"/>
			<point x="210" y="702"/>
			<point x="235" y="728"/>
			<point x="270" y="728" type="curve"/>
			<point x="302" y="728"/>
			<point x="327" y="704"/>
			<point x="327" y="671" type="curve"/>
			<point x="327" y="638"/>
			<point x="304" y="615"/>
			<point x="270" y="615" type="curve"/>
			<point x="231" y="615"/>
			<point x="210" y="641"/>
		</contour>
	</outline>
</glyph>
<glyph name="guillemotleft" format="2">
	<advance width="650"/>
	<unicode hex="00AB"/>
	<outline>
		<contour>
			<point x="221" y="18" type="line"/>
			<point x="338" y="110" type="line"/>
			<point x="209" y="278" type="line"/>
			<point x="338" y="446" type="line"/>
			<point x="221" y="539" type="line"/>
			<point x="18" y="278" type="line"/>
		</contour>
		<contour>
			<point x="479" y="18" type="line"/>
			<point x="596" y="110" type="line"/>
			<point x="467" y="278" type="line"/>
			<point x="596" y="446" type="line"/>
			<point x="479" y="539" type="line"/>
			<point x="276" y="278" type="line"/>
		</contour>
	</outline>
</glyph>
<glyph name="logicalnot" format="2">
	<advance width="700"/>
	<unicode hex="00AC"/>
	<outline>
		<contour>
			<point x="606" y="55" type="line"/>
			<point x="606" y="388" type="line"/>
			<point x="65" y="388" type="line"/>
			<point x="65" y="180" type="line"/>
			<point x="398" y="180" type="line"/>
			<point x="398" y="55" type="line"/>
		</contour>
	</outline>
</glyph>
<glyph name="registered" format="2">
	<advance width="519"/>
	<unicode hex="00AE"/>
	<outline>
		<contour>
			<point x="28" y="615" type="curve"/>
			<point x="28" y="615" type="line"/>
			<point x="28" y="492"/>
			<point x="129" y="392"/>
			<point x="251" y="392" type="curve"/>
			<point x="376" y="392"/>
			<point x="476" y="492"/>
			<point x="476" y="615" type="curve"/>
			<point x="476" y="739"/>
			<point x="376" y="840"/>
			<point x="251" y="840" type="curve"/>
			<point x="129" y="840"/>
			<point x="28" y="739"/>
		</contour>
		<contour>
			<point x="101" y="615" type="curve"/>
			<point x="101" y="615" type="line"/>
			<point x="101" y="699"/>
			<point x="169" y="767"/>
			<point x="251" y="767" type="curve"/>
			<point x="336" y="767"/>
			<point x="403" y="699"/>
			<point x="403" y="615" type="curve"/>
			<point x="403" y="532"/>
			<point x="336" y="465"/>
			<point x="251" y="465" type="curve"/>
			<point x="169" y="465"/>
			<point x="101" y="532"/>
		</contour>
		<contour>
			<point x="256" y="720" type="curve"/>
			<point x="179" y="720" type="line"/>
			<point x="179" y="513" type="line"/>
			<point x="232" y="513" type="line"/>
			<point x="232" y="595" type="line"/>
			<point x="222" y="595" type="line"/>
			<point x="291" y="513" type="line"/>
			<point x="362" y="513" type="line"/>
			<point x="280" y="599" type="line"/>
			<point x="305" y="608"/>
			<point x="324" y="627"/>
			<point x="324" y="659" type="curve"/>
			<point x="324" y="699"/>
			<point x="295" y="720"/>
		</contour>
		<contour>
			<point x="228" y="632" type="curve"/>
			<point x="232" y="632" type="line"/>
			<point x="232" y="679" type="line"/>
			<point x="229" y="679" type="line" smooth="yes"/>
			<point x="241" y="679"/>
			<point x="266" y="680"/>
			<point x="266" y="654" type="curve"/>
			<point x="266" y="629"/>
			<point x="242" y="632"/>
		</contour>
	</outline>
</glyph>
<glyph name="macron" format="2">
	<advance width="573"/>
	<unicode hex="00AF"/>
	<outline>
		<contour>
			<point x="62" y="768" type="line"/>
			<point x="62" y="620" type="line"/>
			<point x="497" y="620" type="line"/>
			<point x="497" y="768" type="line"/>
		</contour>
	</outline>
</glyph>
<glyph name="degree" format="2">
	<advance width="397"/>
	<unicode hex="00B0"/>
	<outline>
		<contour>
			<point x="62" y="772" type="curve"/>
			<point x="62" y="772" type="line"/>
			<point x="62" y="707"/>
			<point x="115" y="660"/>
			<point x="191" y="660" type="curve"/>
			<point x="266" y="660"/>
			<point x="319" y="707"/>
			<point x="319" y="772" type="curve"/>
			<point x="319" y="838"/>
			<point x="262" y="884"/>
			<point x="191" y="884" type="curve"/>
			<point x="119" y="884"/>
			<point x="62" y="838"/>
		</contour>
		<contour>
			<point x="151" y="772" type="curve"/>
			<point x="151" y="772" type="line"/>
			<point x="151" y="797"/>
			<point x="169" y="815"/>
			<point x="191" y="815" type="curve"/>
			<point x="213" y="815"/>
			<point x="231" y="797"/>
			<point x="231" y="772" type="curve"/>
			<point x="231" y="749"/>
			<point x="214" y="728"/>
			<point x="191" y="728" type="curve"/>
			<point x="167" y="728"/>
			<point x="151" y="748"/>
		</contour>
	</outline>
</glyph>
<glyph name="acute" format="2">
	<advance width="591"/>
	<unicode hex="00B4"/>
	<outline>
		<contour>
			<point x="131" y="667" type="line"/>
			<point x="199" y="573" type="line"/>
			<point x="453" y="716" type="line"/>
			<point x="343" y="855" type="line"/>
		</contour>
	</outline>
</glyph>
<glyph name="paragraph" format="2">
	<advance width="733"/>
	<unicode hex="00B6"/>
	<outline>
		<contour>
			<point x="563" y="0" type="line"/>
			<point x="690" y="0" type="line"/>
			<point x="690" y="825" type="line"/>
			<point x="262" y="825" type="line" smooth="yes"/>
			<point x="105" y="825"/>
			<point x="-9" y="712"/>
			<point x="-9" y="553" type="curve"/>
			<point x="-9" y="395"/>
			<point x="105" y="270"/>
			<point x="262" y="270" type="curve"/>
			<point x="380" y="270" type="line"/>
			<point x="380" y="0" type="line"/>
			<point x="508" y="0" type="line"/>
			<point x="508" y="699" type="line"/>
			<point x="563" y="699" type="line"/>
		</contour>
	</outline>
</glyph>
<glyph name="cedilla" format="2">
	<advance width="471"/>
	<unicode hex="00B8"/>
	<outline>
		<contour>
			<point x="281" y="2" type="line"/>
			<point x="203" y="26" type="line"/>
			<point x="155" y="-105" type="line"/>
			<point x="158" y="-110" type="line"/>
			<point x="162" y="-106"/>
			<point x="178" y="-101"/>
			<point x="204" y="-101" type="curve"/>
			<point x="232" y="-101"/>
			<point x="259" y="-114"/>
			<point x="259" y="-140" type="curve"/>
			<point x="259" y="-159"/>
			<point x="246" y="-171"/>
			<point x="224" y="-171" type="curve"/>
			<point x="193" y="-171"/>
			<point x="163" y="-147"/>
			<point x="148" y="-129" type="curve"/>
			<point x="72" y="-213" type="line"/>
			<point x="93" y="-239"/>
			<point x="154" y="-274"/>
			<point x="245" y="-274" type="curve"/>
			<point x="330" y="-274"/>
			<point x="396" y="-224"/>
			<point x="396" y="-144" type="curve"/>
			<point x="396" y="-81"/>
			<point x="340" y="-38"/>
			<point x="263" y="-38" type="curve"/>
		</contour>
	</outline>
</glyph>
<glyph name="ordmasculine" format="2">
	<advance width="546"/>
	<unicode hex="00BA"/>
	<outline>
		<contour>
			<point x="66" y="671" type="curve"/>
			<point x="66" y="671" type="line"/>
			<point x="66" y="574"/>
			<point x="143" y="504"/>
			<point x="267" y="504" type="curve"/>
			<point x="385" y="504"/>
			<point x="465" y="574"/>
			<point x="465" y="671" type="curve"/>
			<point x="465" y="770"/>
			<point x="381" y="840"/>
			<point x="267" y="840" type="curve"/>
			<point x="151" y="840"/>
			<point x="66" y="770"/>
		</contour>
		<contour>
			<point x="209" y="671" type="curve"/>
			<point x="209" y="671" type="line"/>
			<point x="209" y="703"/>
			<point x="232" y="726"/>
			<point x="266" y="726" type="curve"/>
			<point x="300" y="726"/>
			<point x="323" y="703"/>
			<point x="323" y="671" type="curve"/>
			<point x="323" y="640"/>
			<point x="302" y="617"/>
			<point x="266" y="617" type="curve"/>
			<point x="229" y="617"/>
			<point x="209" y="640"/>
		</contour>
	</outline>
</glyph>
<glyph name="AE" format="2">
	<advance width="1102"/>
	<unicode hex="00C6"/>
	<outline>
		<contour>
			<point x="665" y="825" type="line"/>
			<point x="415" y="825" type="line"/>
			<point x="-21" y="0" type="line"/>
			<point x="242" y="0" type="line"/>
			<point x="313" y="143" type="line"/>
			<point x="611" y="143" type="line"/>
		</contour>
		<contour>
			<point x="501" y="323" type="line"/>
			<point x="403" y="323" type="line"/>
			<point x="499" y="501" type="line"/>
			<point x="501" y="501" type="line"/>
		</contour>
		<component base="E" xOffset="448"/>
	</outline>
</glyph>
<glyph name="Eth" format="2">
	<advance width="831"/>
	<unicode hex="00D0"/>
	<outline>
		<contour>
			<point x="338" y="825" type="curve"/>
			<point x="338" y="825" type="line"/>
			<point x="68" y="825" type="line"/>
			<point x="68" y="511" type="line"/>
			<point x="9" y="511" type="line"/>
			<point x="9" y="314" type="line"/>
			<point x="68" y="314" type="line"/>
			<point x="68" y="0" type="line"/>
			<point x="338" y="0" type="line" smooth="yes"/>
			<point x="550" y="0"/>
			<point x="770" y="171"/>
			<point x="770" y="412" type="curve"/>
			<point x="770" y="653"/>
			<point x="552" y="825"/>
		</contour>
		<contour>
			<point x="316" y="213" type="curve"/>
			<point x="316" y="213" type="line"/>
			<point x="310" y="213" type="line"/>
			<point x="310" y="314" type="line"/>
			<point x="402" y="314" type="line"/>
			<point x="402" y="511" type="line"/>
			<point x="310" y="511" type="line"/>
			<point x="310" y="612" type="line"/>
			<point x="316" y="612" type="line" smooth="yes"/>
			<point x="419" y="612"/>
			<point x="505" y="513"/>
			<point x="506" y="413" type="curve"/>
			<point x="507" y="313"/>
			<point x="421" y="213"/>
		</contour>
	</outline>
</glyph>
<glyph name="multiply" format="2">
	<advance width="658"/>
	<unicode hex="00D7"/>
	<outline>
		<contour>
			<point x="597" y="279" type="line"/>
			<point x="461" y="414" type="line"/>
			<point x="597" y="550" type="line"/>
			<point x="457" y="689" type="line"/>
			<point x="321" y="555" type="line"/>
			<point x="186" y="689" type="line"/>
			<point x="47" y="551" type="line"/>
			<point x="181" y="415" type="line"/>
			<point x="47" y="281" type="line"/>
			<point x="186" y="140" type="line"/>
			<point x="322" y="276" type="line"/>
			<point x="459" y="140" type="line"/>
		</contour>
	</outline>
</glyph>
<glyph name="Oslash" format="2">
	<advance width="932"/>
	<unicode hex="00D8"/>
	<outline>
		<contour>
			<point x="893" y="802" type="line"/>
			<point x="813" y="873" type="line"/>
			<point x="-6" y="18" type="line"/>
			<point x="74" y="-53" type="line"/>
		</contour>
		<component base="O"/>
	</outline>
</glyph>
<glyph name="Thorn" format="2">
	<advance width="721"/>
	<unicode hex="00DE"/>
	<outline>
		<contour>
			<point x="282" y="825" type="line"/>
			<point x="40" y="825" type="line"/>
			<point x="40" y="0" type="line"/>
			<point x="282" y="0" type="line"/>
			<point x="282" y="153" type="line"/>
			<point x="381" y="153" type="line" smooth="yes"/>
			<point x="542" y="153"/>
			<point x="673" y="248"/>
			<point x="673" y="418" type="curve"/>
			<point x="673" y="589"/>
			<point x="542" y="672"/>
			<point x="381" y="672" type="curve"/>
			<point x="282" y="672" type="line"/>
		</contour>
		<contour>
			<point x="330" y="341" type="curve"/>
			<point x="282" y="341" type="line"/>
			<point x="282" y="484" type="line"/>
			<point x="330" y="484" type="line" smooth="yes"/>
			<point x="375" y="484"/>
			<point x="407" y="462"/>
			<point x="407" y="414" type="curve"/>
			<point x="407" y="366"/>
			<point x="375" y="341"/>
		</contour>
	</outline>
</glyph>
<glyph name="germandbls" format="2">
	<advance width="751"/>
	<unicode hex="00DF"/>
	<anchor x="349" y="513" name="top"/>
	<anchor x="349" y="0" name="bottom"/>
	<outline>
		<contour>
			<point x="375" y="189" type="curve"/>
			<point x="375" y="189" type="line"/>
			<point x="375" y="-15" type="line"/>
			<point x="553" y="-15"/>
			<point x="701" y="106"/>
			<point x="701" y="264" type="curve"/>
			<point x="701" y="375"/>
			<point x="644" y="438"/>
			<point x="565" y="463" type="curve"/>
			<point x="625" y="494"/>
			<point x="662" y="555"/>
			<point x="662" y="629" type="curve"/>
			<point x="662" y="786"/>
			<point x="552" y="875"/>
			<point x="374" y="875" type="curve"/>
			<point x="197" y="875"/>
			<point x="73" y="765"/>
			<point x="73" y="560" type="curve"/>
			<point x="73" y="0" type="line"/>
			<point x="299" y="0" type="line"/>
			<point x="299" y="584" type="line" smooth="yes"/>
			<point x="299" y="647"/>
			<point x="330" y="686"/>
			<point x="378" y="686" type="curve"/>
			<point x="429" y="686"/>
			<point x="451" y="659"/>
			<point x="451" y="615" type="curve"/>
			<point x="451" y="566"/>
			<point x="406" y="542"/>
			<point x="375" y="542" type="curve"/>
			<point x="375" y="375" type="line"/>
			<point x="424" y="375"/>
			<point x="461" y="347"/>
			<point x="461" y="283" type="curve"/>
			<point x="461" y="218"/>
			<point x="417" y="189"/>
		</contour>
	</outline>
</glyph>
<glyph name="ae" format="2">
	<advance width="1023"/>
	<unicode hex="00E6"/>
	<anchor x="524" y="513" name="top"/>
	<anchor x="524" y="0" name="bottom"/>
	<outline>
		<contour>
			<point x="240" y="-15" type="curve"/>
			<point x="240" y="-15" type="line"/>
			<point x="370" y="-15"/>
			<point x="452" y="39"/>
			<point x="478" y="79" type="curve"/>
			<point x="528" y="23"/>
			<point x="607" y="-15"/>
			<point x="695" y="-15" type="curve"/>
			<point x="816" y="-15"/>
			<point x="901" y="13"/>
			<point x="965" y="64" type="curve"/>
			<point x="838" y="202" type="line"/>
			<point x="805" y="172"/>
			<point x="750" y="160"/>
			<point x="708" y="160" type="curve"/>
			<point x="696" y="160"/>
			<point x="614" y="171"/>
			<point x="614" y="227" type="curve"/>
			<point x="982" y="227" type="line"/>
			<point x="982" y="233"/>
			<point x="983" y="249"/>
			<point x="983" y="256" type="curve"/>
			<point x="983" y="446"/>
			<point x="860" y="528"/>
			<point x="695" y="528" type="curve"/>
			<point x="607" y="528"/>
			<point x="535" y="490"/>
			<point x="491" y="452" type="curve"/>
			<point x="463" y="497"/>
			<point x="376" y="528"/>
			<point x="282" y="528" type="curve"/>
			<point x="154" y="528"/>
			<point x="57" y="503"/>
			<point x="20" y="484" type="curve"/>
			<point x="115" y="333" type="line"/>
			<point x="139" y="345"/>
			<point x="195" y="362"/>
			<point x="262" y="362" type="curve"/>
			<point x="362" y="362"/>
			<point x="386" y="319"/>
			<point x="386" y="299" type="curve"/>
			<point x="386" y="291" type="line"/>
			<point x="372" y="300"/>
			<point x="339" y="321"/>
			<point x="260" y="321" type="curve"/>
			<point x="132" y="321"/>
			<point x="45" y="246"/>
			<point x="45" y="161" type="curve"/>
			<point x="45" y="54"/>
			<point x="125" y="-15"/>
		</contour>
		<contour>
			<point x="291" y="119" type="curve"/>
			<point x="291" y="119" type="line"/>
			<point x="267" y="119"/>
			<point x="247" y="139"/>
			<point x="247" y="163" type="curve"/>
			<point x="247" y="187"/>
			<point x="267" y="207"/>
			<point x="291" y="207" type="curve"/>
			<point x="315" y="207"/>
			<point x="335" y="187"/>
			<point x="335" y="163" type="curve"/>
			<point x="335" y="139"/>
			<point x="315" y="119"/>
		</contour>
		<contour>
			<point x="770" y="344" type="curve"/>
			<point x="619" y="344" type="line"/>
			<point x="624" y="366"/>
			<point x="661" y="390"/>
			<point x="701" y="390" type="curve"/>
			<point x="746" y="390"/>
			<point x="763" y="362"/>
		</contour>
	</outline>
</glyph>
<glyph name="eth" format="2">
	<advance width="709"/>
	<unicode hex="00F0"/>
	<outline>
		<contour>
			<point x="33" y="256" type="curve"/>
			<point x="33" y="256" type="line"/>
			<point x="33" y="98"/>
			<point x="166" y="-15"/>
			<point x="356" y="-15" type="curve"/>
			<point x="532" y="-15"/>
			<point x="675" y="99"/>
			<point x="675" y="290" type="curve"/>
			<point x="675" y="503"/>
			<point x="581" y="666"/>
			<point x="463" y="752" type="curve"/>
			<point x="503" y="794" type="line"/>
			<point x="416" y="888" type="line"/>
			<point x="349" y="825" type="line"/>
			<point x="253" y="871"/>
			<point x="174" y="896"/>
			<point x="142" y="902" type="curve"/>
			<point x="91" y="712" type="line"/>
			<point x="109" y="708"/>
			<point x="150" y="694"/>
			<point x="197" y="674" type="curve"/>
			<point x="144" y="621" type="line"/>
			<point x="235" y="529" type="line"/>
			<point x="328" y="617" type="line"/>
			<point x="361" y="594"/>
			<point x="401" y="531"/>
			<point x="411" y="501" type="curve"/>
			<point x="396" y="517"/>
			<point x="378" y="528"/>
			<point x="314" y="528" type="curve"/>
			<point x="196" y="528"/>
			<point x="33" y="444"/>
		</contour>
		<contour>
			<point x="275" y="256" type="curve"/>
			<point x="275" y="256" type="line"/>
			<point x="275" y="300"/>
			<point x="306" y="337"/>
			<point x="354" y="337" type="curve"/>
			<point x="402" y="337"/>
			<point x="433" y="302"/>
			<point x="433" y="256" type="curve"/>
			<point x="433" y="212"/>
			<point x="402" y="177"/>
			<point x="354" y="177" type="curve"/>
			<point x="306" y="177"/>
			<point x="275" y="213"/>
		</contour>
	</outline>
</glyph>
<glyph name="divide" format="2">
	<advance width="658"/>
	<unicode hex="00F7"/>
	<outline>
		<contour>
			<point x="320" y="746" type="curve"/>
			<point x="320" y="746" type="line"/>
			<point x="269" y="746"/>
			<point x="227" y="704"/>
			<point x="227" y="651" type="curve"/>
			<point x="227" y="600"/>
			<point x="269" y="558"/>
			<point x="320" y="558" type="curve"/>
			<point x="373" y="558"/>
			<point x="415" y="600"/>
			<point x="415" y="651" type="curve"/>
			<point x="415" y="704"/>
			<point x="373" y="746"/>
		</contour>
		<contour>
			<point x="54" y="514" type="line"/>
			<point x="54" y="316" type="line"/>
			<point x="590" y="316" type="line"/>
			<point x="590" y="514" type="line"/>
		</contour>
		<contour>
			<point x="320" y="271" type="curve"/>
			<point x="320" y="271" type="line"/>
			<point x="269" y="271"/>
			<point x="227" y="229"/>
			<point x="227" y="176" type="curve"/>
			<point x="227" y="125"/>
			<point x="269" y="83"/>
			<point x="320" y="83" type="curve"/>
			<point x="373" y="83"/>
			<point x="415" y="125"/>
			<point x="415" y="176" type="curve"/>
			<point x="415" y="229"/>
			<point x="373" y="271"/>
		</contour>
	</outline>
</glyph>
<glyph name="oslash" format="2">
	<advance width="641"/>
	<unicode hex="00F8"/>
	<outline>
		<contour>
			<point x="606" y="499" type="line"/>
			<point x="546" y="550" type="line"/>
			<point x="24" y="18" type="line"/>
			<point x="84" y="-33" type="line"/>
		</contour>
		<component base="o"/>
	</outline>
</glyph>
<glyph name="thorn" format="2">
	<advance width="728"/>
	<unicode hex="00FE"/>
	<outline>
		<contour>
			<point x="283" y="0" type="line"/>
			<point x="40" y="0" type="line"/>
			<point x="40" y="-260" type="line"/>
			<point x="283" y="-260" type="line"/>
		</contour>
		<component base="b"/>
	</outline>
</glyph>
<glyph name="Dcroat" format="2">
	<advance width="831"/>
	<unicode hex="0110"/>
	<outline>
		<contour>
			<point x="68" y="314" type="line"/>
			<point x="68" y="0" type="line"/>
			<point x="338" y="0" type="line" smooth="yes"/>
			<point x="551" y="0"/>
			<point x="770" y="172"/>
			<point x="770" y="413" type="curve"/>
			<point x="770" y="653"/>
			<point x="550" y="825"/>
			<point x="338" y="825" type="curve"/>
			<point x="68" y="825" type="line"/>
			<point x="68" y="511" type="line"/>
			<point x="9" y="511" type="line"/>
			<point x="9" y="314" type="line"/>
		</contour>
		<contour>
			<point x="316" y="213" type="curve"/>
			<point x="310" y="213" type="line"/>
			<point x="310" y="314" type="line"/>
			<point x="402" y="314" type="line"/>
			<point x="402" y="511" type="line"/>
			<point x="310" y="511" type="line"/>
			<point x="310" y="612" type="line"/>
			<point x="316" y="612" type="line" smooth="yes"/>
			<point x="420" y="612"/>
			<point x="506" y="514"/>
			<point x="506" y="412" type="curve"/>
			<point x="506" y="310"/>
			<point x="419" y="213"/>
		</contour>
	</outline>
</glyph>
<glyph name="dcroat" format="2">
	<advance width="728"/>
	<unicode hex="0111"/>
	<outline>
		<contour>
			<point x="333" y="760" type="line"/>
			<point x="333" y="619" type="line"/>
			<point x="731" y="619" type="line"/>
			<point x="731" y="760" type="line"/>
		</contour>
		<component base="d"/>
	</outline>
</glyph>
<glyph name="Hbar" format="2">
	<advance width="814"/>
	<unicode hex="0126"/>
	<outline>
		<contour>
			<point x="786" y="746" type="line"/>
			<point x="-21" y="746" type="line"/>
			<point x="-21" y="596" type="line"/>
			<point x="786" y="596" type="line"/>
		</contour>
		<component base="H"/>
	</outline>
</glyph>
<glyph name="hbar" format="2">
	<advance width="725"/>
	<unicode hex="0127"/>
	<outline>
		<contour>
			<point x="-25" y="760" type="line"/>
			<point x="-25" y="619" type="line"/>
			<point x="373" y="619" type="line"/>
			<point x="373" y="760" type="line"/>
		</contour>
		<component base="h"/>
	</outline>
</glyph>
<glyph name="dotlessi" format="2">
	<advance width="294"/>
	<unicode hex="0131"/>
	<anchor x="265" y="10" name="ogonek"/>
	<anchor x="140" y="0" name="bottom"/>
	<anchor x="140" y="513" name="top"/>
	<outline>
		<contour>
			<point x="26" y="513" type="line"/>
			<point x="26" y="0" type="line"/>
			<point x="253" y="0" type="line"/>
			<point x="253" y="513" type="line"/>
		</contour>
	</outline>
</glyph>
<glyph name="kgreenlandic" format="2">
	<advance width="724"/>
	<unicode hex="0138"/>
	<anchor x="354" y="513" name="top"/>
	<anchor x="386" y="0" name="bottom"/>
	<outline>
		<contour>
			<point x="703" y="0" type="line"/>
			<point x="447" y="257" type="line"/>
			<point x="666" y="513" type="line"/>
			<point x="394" y="513" type="line"/>
			<point x="260" y="339" type="line"/>
			<point x="260" y="513" type="line"/>
			<point x="18" y="513" type="line"/>
			<point x="18" y="0" type="line"/>
			<point x="260" y="0" type="line"/>
			<point x="260" y="171" type="line"/>
			<point x="415" y="0" type="line"/>
		</contour>
	</outline>
</glyph>
<glyph name="Lslash" format="2">
	<advance width="656"/>
	<unicode hex="0141"/>
	<outline>
		<contour>
			<point x="82" y="272" type="line"/>
			<point x="82" y="0" type="line"/>
			<point x="585" y="0" type="line"/>
			<point x="585" y="210" type="line"/>
			<point x="324" y="210" type="line"/>
			<point x="324" y="463" type="line"/>
			<point x="440" y="555" type="line"/>
			<point x="440" y="740" type="line"/>
			<point x="324" y="647" type="line"/>
			<point x="324" y="825" type="line"/>
			<point x="82" y="825" type="line"/>
			<point x="82" y="457" type="line"/>
			<point x="12" y="403" type="line"/>
			<point x="12" y="219" type="line"/>
		</contour>
	</outline>
</glyph>
<glyph name="lslash" format="2">
	<advance width="394"/>
	<unicode hex="0142"/>
	<outline>
		<contour>
			<point x="79" y="285" type="line"/>
			<point x="79" y="0" type="line"/>
			<point x="305" y="0" type="line"/>
			<point x="305" y="462" type="line"/>
			<point x="383" y="523" type="line"/>
			<point x="383" y="707" type="line"/>
			<point x="305" y="646" type="line"/>
			<point x="305" y="860" type="line"/>
			<point x="79" y="860" type="line"/>
			<point x="79" y="469" type="line"/>
			<point x="-4" y="403" type="line"/>
			<point x="-4" y="219" type="line"/>
		</contour>
	</outline>
</glyph>
<glyph name="Eng" format="2">
	<advance width="943"/>
	<unicode hex="014A"/>
	<outline>
		<contour>
			<point x="608" y="0" type="line"/>
			<point x="860" y="0" type="line"/>
			<point x="860" y="-15" type="line" smooth="yes"/>
			<point x="860" y="-139"/>
			<point x="799" y="-275"/>
			<point x="637" y="-275" type="curve"/>
			<point x="538" y="-275"/>
			<point x="487" y="-253"/>
			<point x="453" y="-238" type="curve"/>
			<point x="529" y="-50" type="line"/>
			<point x="540" y="-55"/>
			<point x="559" y="-61"/>
			<point x="570" y="-61" type="curve"/>
			<point x="589" y="-61"/>
			<point x="608" y="-49"/>
			<point x="608" y="-25" type="curve"/>
		</contour>
		<component base="N"/>
	</outline>
</glyph>
<glyph name="eng" format="2">
	<advance width="720"/>
	<unicode hex="014B"/>
	<outline>
		<contour>
			<point x="429" y="0" type="line"/>
			<point x="675" y="0" type="line"/>
			<point x="675" y="-19" type="line" smooth="yes"/>
			<point x="675" y="-125"/>
			<point x="594" y="-275"/>
			<point x="437" y="-275" type="curve"/>
			<point x="339" y="-275"/>
			<point x="298" y="-253"/>
			<point x="274" y="-238" type="curve"/>
			<point x="350" y="-60" type="line"/>
			<point x="358" y="-65"/>
			<point x="375" y="-71"/>
			<point x="391" y="-71" type="curve"/>
			<point x="410" y="-71"/>
			<point x="429" y="-59"/>
			<point x="429" y="-15" type="curve"/>
		</contour>
		<component base="n"/>
	</outline>
</glyph>
<glyph name="OE" format="2">
	<advance width="1065"/>
	<unicode hex="0152"/>
	<anchor x="510" y="825" name="top"/>
	<anchor x="510" y="0" name="bottom"/>
	<outline>
		<contour>
			<point x="438" y="0" type="curve"/>
			<point x="438" y="0" type="line"/>
			<point x="988" y="0" type="line"/>
			<point x="988" y="210" type="line"/>
			<point x="735" y="210" type="line"/>
			<point x="735" y="309" type="line"/>
			<point x="976" y="309" type="line"/>
			<point x="976" y="518" type="line"/>
			<point x="735" y="518" type="line"/>
			<point x="735" y="615" type="line"/>
			<point x="988" y="615" type="line"/>
			<point x="988" y="825" type="line"/>
			<point x="438" y="825" type="line" smooth="yes"/>
			<point x="211" y="825"/>
			<point x="8" y="653"/>
			<point x="8" y="412" type="curve"/>
			<point x="8" y="171"/>
			<point x="218" y="0"/>
		</contour>
		<contour>
			<point x="493" y="216" type="line"/>
			<point x="469" y="216" type="line"/>
			<point x="358" y="216"/>
			<point x="270" y="300"/>
			<point x="270" y="413" type="curve"/>
			<point x="270" y="524"/>
			<point x="354" y="609"/>
			<point x="469" y="609" type="curve"/>
			<point x="493" y="609" type="line"/>
		</contour>
	</outline>
</glyph>
<glyph name="Tbar" format="2">
	<advance width="651"/>
	<unicode hex="0166"/>
	<outline>
		<contour>
			<point x="600" y="499" type="line"/>
			<point x="4" y="499" type="line"/>
			<point x="4" y="327" type="line"/>
			<point x="600" y="327" type="line"/>
		</contour>
		<component base="T"/>
	</outline>
</glyph>
<glyph name="tbar" format="2">
	<advance width="470"/>
	<unicode hex="0167"/>
	<outline>
		<contour>
			<point x="424" y="295" type="line"/>
			<point x="0" y="295" type="line"/>
			<point x="0" y="213" type="line"/>
			<point x="424" y="213" type="line"/>
		</contour>
		<component base="t"/>
	</outline>
</glyph>
<glyph name="uni018F" format="2">
	<advance width="881"/>
	<unicode hex="018F"/>
	<outline>
		<contour>
			<point x="419" y="-16" type="curve"/>
			<point x="419" y="-16" type="line"/>
			<point x="664" y="-16"/>
			<point x="826" y="141"/>
			<point x="826" y="413" type="curve"/>
			<point x="826" y="695"/>
			<point x="639" y="840"/>
			<point x="415" y="840" type="curve"/>
			<point x="230" y="840"/>
			<point x="102" y="746"/>
			<point x="62" y="705" type="curve"/>
			<point x="242" y="546" type="line"/>
			<point x="270" y="579"/>
			<point x="321" y="624"/>
			<point x="416" y="624" type="curve"/>
			<point x="517" y="624"/>
			<point x="583" y="561"/>
			<point x="583" y="487" type="curve"/>
			<point x="26" y="487" type="line"/>
			<point x="24" y="481"/>
			<point x="24" y="425"/>
			<point x="24" y="418" type="curve"/>
			<point x="24" y="162"/>
			<point x="174" y="-16"/>
		</contour>
		<contour>
			<point x="421" y="182" type="curve"/>
			<point x="421" y="182" type="line"/>
			<point x="309" y="182"/>
			<point x="266" y="262"/>
			<point x="266" y="326" type="curve"/>
			<point x="578" y="326" type="line"/>
			<point x="578" y="258"/>
			<point x="530" y="182"/>
		</contour>
	</outline>
</glyph>
<glyph name="florin" format="2">
	<advance width="464"/>
	<unicode hex="0192"/>
	<outline>
		<contour>
			<point x="-6" y="-272" type="curve"/>
			<point x="-6" y="-272" type="line"/>
			<point x="118" y="-272"/>
			<point x="251" y="-184"/>
			<point x="271" y="-39" type="curve"/>
			<point x="320" y="313" type="line"/>
			<point x="414" y="313" type="line"/>
			<point x="442" y="513" type="line"/>
			<point x="348" y="513" type="line"/>
			<point x="363" y="622" type="line" smooth="yes"/>
			<point x="368" y="656"/>
			<point x="391" y="668"/>
			<point x="409" y="668" type="curve"/>
			<point x="428" y="668"/>
			<point x="440" y="657"/>
			<point x="442" y="655" type="curve"/>
			<point x="551" y="843" type="line"/>
			<point x="547" y="848"/>
			<point x="489" y="875"/>
			<point x="397" y="875" type="curve"/>
			<point x="273" y="875"/>
			<point x="140" y="787"/>
			<point x="120" y="642" type="curve"/>
			<point x="102" y="513" type="line"/>
			<point x="31" y="513" type="line"/>
			<point x="3" y="313" type="line"/>
			<point x="74" y="313" type="line"/>
			<point x="28" y="-19" type="line"/>
			<point x="23" y="-53"/>
			<point x="0" y="-65"/>
			<point x="-18" y="-65" type="curve"/>
			<point x="-37" y="-65"/>
			<point x="-49" y="-54"/>
			<point x="-51" y="-52" type="curve"/>
			<point x="-160" y="-240" type="line"/>
			<point x="-156" y="-245"/>
			<point x="-98" y="-272"/>
		</contour>
	</outline>
</glyph>
<glyph name="uni0237" format="2">
	<advance width="362"/>
	<unicode hex="0237"/>
	<anchor x="181" y="513" name="top"/>
	<anchor x="181" y="-260" name="bottom"/>
	<outline>
		<contour>
			<point x="68" y="-275" type="curve"/>
			<point x="68" y="-275" type="line"/>
			<point x="225" y="-275"/>
			<point x="296" y="-176"/>
			<point x="296" y="-57" type="curve"/>
			<point x="296" y="513" type="line"/>
			<point x="50" y="513" type="line"/>
			<point x="50" y="-25" type="line" smooth="yes"/>
			<point x="50" y="-59"/>
			<point x="29" y="-71"/>
			<point x="10" y="-71" type="curve"/>
			<point x="-3" y="-71"/>
			<point x="-19" y="-68"/>
			<point x="-34" y="-57" type="curve"/>
			<point x="-105" y="-238" type="line"/>
			<point x="-75" y="-255"/>
			<point x="-20" y="-275"/>
		</contour>
	</outline>
</glyph>
<glyph name="circumflex" format="2">
	<advance width="607"/>
	<unicode hex="02C6"/>
	<outline>
		<contour>
			<point x="53" y="669" type="line"/>
			<point x="135" y="560" type="line"/>
			<point x="297" y="678" type="line"/>
			<point x="458" y="560" type="line"/>
			<point x="540" y="669" type="line"/>
			<point x="297" y="847" type="line"/>
		</contour>
	</outline>
</glyph>
<glyph name="caron" format="2">
	<advance width="607"/>
	<unicode hex="02C7"/>
	<outline>
		<contour>
			<point x="135" y="866" type="line"/>
			<point x="53" y="757" type="line"/>
			<point x="297" y="578" type="line"/>
			<point x="540" y="756" type="line"/>
			<point x="458" y="865" type="line"/>
			<point x="297" y="747" type="line"/>
		</contour>
	</outline>
</glyph>
<glyph name="breve" format="2">
	<advance width="627"/>
	<unicode hex="02D8"/>
	<outline>
		<contour>
			<point x="568" y="825" type="curve"/>
			<point x="568" y="825" type="line"/>
			<point x="416" y="863" type="line"/>
			<point x="412" y="815"/>
			<point x="379" y="751"/>
			<point x="306" y="751" type="curve"/>
			<point x="233" y="751"/>
			<point x="201" y="815"/>
			<point x="197" y="863" type="curve"/>
			<point x="44" y="825" type="line"/>
			<point x="59" y="695"/>
			<point x="163" y="619"/>
			<point x="306" y="619" type="curve"/>
			<point x="453" y="619"/>
			<point x="554" y="699"/>
		</contour>
	</outline>
</glyph>
<glyph name="dotaccent" format="2">
	<advance width="349"/>
	<unicode hex="02D9"/>
	<outline>
		<contour>
			<point x="167" y="808" type="curve"/>
			<point x="167" y="808" type="line"/>
			<point x="106" y="808"/>
			<point x="58" y="759"/>
			<point x="58" y="699" type="curve"/>
			<point x="58" y="639"/>
			<point x="106" y="590"/>
			<point x="167" y="590" type="curve"/>
			<point x="227" y="590"/>
			<point x="275" y="639"/>
			<point x="275" y="699" type="curve"/>
			<point x="275" y="759"/>
			<point x="227" y="808"/>
		</contour>
	</outline>
</glyph>
<glyph name="ring" format="2">
	<advance width="487"/>
	<unicode hex="02DA"/>
	<outline>
		<contour>
			<point x="53" y="733" type="curve"/>
			<point x="53" y="733" type="line"/>
			<point x="53" y="638"/>
			<point x="127" y="571"/>
			<point x="236" y="571" type="curve"/>
			<point x="342" y="571"/>
			<point x="418" y="638"/>
			<point x="418" y="733" type="curve"/>
			<point x="418" y="827"/>
			<point x="339" y="894"/>
			<point x="236" y="894" type="curve"/>
			<point x="134" y="894"/>
			<point x="53" y="827"/>
		</contour>
		<contour>
			<point x="186" y="733" type="curve"/>
			<point x="186" y="733" type="line"/>
			<point x="186" y="764"/>
			<point x="208" y="784"/>
			<point x="236" y="784" type="curve"/>
			<point x="262" y="784"/>
			<point x="285" y="764"/>
			<point x="285" y="733" type="curve"/>
			<point x="285" y="701"/>
			<point x="263" y="680"/>
			<point x="236" y="680" type="curve"/>
			<point x="207" y="680"/>
			<point x="186" y="700"/>
		</contour>
	</outline>
</glyph>
<glyph name="ogonek" format="2">
	<advance width="428"/>
	<unicode hex="02DB"/>
	<outline>
		<contour>
			<point x="201" y="-275" type="curve"/>
			<point x="201" y="-275" type="line"/>
			<point x="268" y="-275"/>
			<point x="319" y="-234"/>
			<point x="338" y="-203" type="curve"/>
			<point x="254" y="-140" type="line"/>
			<point x="248" y="-149"/>
			<point x="234" y="-162"/>
			<point x="216" y="-162" type="curve"/>
			<point x="210" y="-162"/>
			<point x="195" y="-149"/>
			<point x="195" y="-136" type="curve"/>
			<point x="195" y="-85"/>
			<point x="221" y="-28"/>
			<point x="241" y="0" type="curve"/>
			<point x="175" y="26" type="line"/>
			<point x="132" y="-21"/>
			<point x="75" y="-104"/>
			<point x="75" y="-158" type="curve"/>
			<point x="75" y="-245"/>
			<point x="149" y="-275"/>
		</contour>
	</outline>
</glyph>
<glyph name="tilde" format="2">
	<advance width="627"/>
	<unicode hex="02DC"/>
	<outline>
		<contour>
			<point x="214" y="647" type="curve"/>
			<point x="214" y="647" type="line"/>
			<point x="274" y="647"/>
			<point x="326" y="602"/>
			<point x="406" y="602" type="curve"/>
			<point x="495" y="602"/>
			<point x="542" y="715"/>
			<point x="553" y="800" type="curve"/>
			<point x="437" y="800" type="line" smooth="yes"/>
			<point x="431" y="781"/>
			<point x="416" y="755"/>
			<point x="396" y="755" type="curve"/>
			<point x="341" y="755"/>
			<point x="287" y="800"/>
			<point x="207" y="800" type="curve"/>
			<point x="118" y="800"/>
			<point x="70" y="687"/>
			<point x="59" y="602" type="curve"/>
			<point x="175" y="602" type="line"/>
			<point x="180" y="621"/>
			<point x="194" y="647"/>
		</contour>
	</outline>
</glyph>
<glyph name="hungarumlaut" format="2">
	<advance width="631"/>
	<unicode hex="02DD"/>
	<outline>
		<contour>
			<point x="94" y="671" type="line"/>
			<point x="161" y="575" type="line"/>
			<point x="368" y="752" type="line"/>
			<point x="270" y="875" type="line"/>
		</contour>
		<contour>
			<point x="303" y="671" type="line"/>
			<point x="370" y="575" type="line"/>
			<point x="577" y="752" type="line"/>
			<point x="479" y="875" type="line"/>
		</contour>
	</outline>
</glyph>
<glyph name="hookabovecomb" format="2">
	<advance width="0"/>
	<unicode hex="0309"/>
	<anchor x="-337" y="876" name="top"/>
	<anchor x="-337" y="513" name="_top"/>
	<outline>
		<contour>
			<point x="-361" y="537" type="curve"/>
			<point x="-415" y="622" type="line"/>
			<point x="-390" y="629"/>
			<point x="-330" y="660"/>
			<point x="-330" y="696" type="curve"/>
			<point x="-330" y="732"/>
			<point x="-352" y="737"/>
			<point x="-390" y="737" type="curve"/>
			<point x="-426" y="737"/>
			<point x="-461" y="722"/>
			<point x="-486" y="709" type="curve"/>
			<point x="-486" y="826" type="line"/>
			<point x="-471" y="836"/>
			<point x="-438" y="856"/>
			<point x="-361" y="856" type="curve"/>
			<point x="-275" y="856"/>
			<point x="-188" y="819"/>
			<point x="-188" y="715" type="curve"/>
			<point x="-188" y="605"/>
			<point x="-313" y="551"/>
		</contour>
	</outline>
</glyph>
<glyph name="uni031B" format="2">
	<advance width="0"/>
	<unicode hex="031B"/>
	<anchor x="-454" y="665" name="_topright"/>
	<anchor x="-209" y="803" name="topright"/>
	<outline>
		<contour>
			<point x="-387" y="535" type="curve"/>
			<point x="-387" y="535" type="line"/>
			<point x="-283" y="535"/>
			<point x="-186" y="601"/>
			<point x="-186" y="707" type="curve"/>
			<point x="-186" y="760"/>
			<point x="-202" y="792"/>
			<point x="-209" y="803" type="curve"/>
			<point x="-359" y="803" type="line"/>
			<point x="-349" y="780"/>
			<point x="-344" y="759"/>
			<point x="-344" y="723" type="curve"/>
			<point x="-344" y="685"/>
			<point x="-367" y="648"/>
			<point x="-403" y="648" type="curve"/>
			<point x="-428" y="648"/>
			<point x="-441" y="654"/>
			<point x="-454" y="665" type="curve"/>
			<point x="-454" y="552" type="line"/>
			<point x="-435" y="541"/>
			<point x="-417" y="535"/>
		</contour>
	</outline>
</glyph>
<glyph name="uni1E9E" format="2">
	<advance width="824"/>
	<unicode hex="1E9E"/>
	<anchor x="390" y="825" name="top"/>
	<anchor x="390" y="0" name="bottom"/>
	<outline>
		<contour>
			<point x="332" y="193" type="curve"/>
			<point x="332" y="193" type="line"/>
			<point x="332" y="-6" type="line"/>
			<point x="380" y="-15"/>
			<point x="420" y="-19"/>
			<point x="465" y="-19" type="curve"/>
			<point x="626" y="-19"/>
			<point x="772" y="58"/>
			<point x="772" y="231" type="curve"/>
			<point x="772" y="433"/>
			<point x="650" y="468"/>
			<point x="546" y="475" type="curve"/>
			<point x="685" y="612" type="line"/>
			<point x="685" y="802" type="line"/>
			<point x="608" y="827"/>
			<point x="492" y="844"/>
			<point x="416" y="844" type="curve"/>
			<point x="193" y="844"/>
			<point x="49" y="764"/>
			<point x="49" y="586" type="curve"/>
			<point x="49" y="0" type="line"/>
			<point x="286" y="0" type="line"/>
			<point x="286" y="483" type="line" smooth="yes"/>
			<point x="286" y="568"/>
			<point x="297" y="647"/>
			<point x="390" y="647" type="curve"/>
			<point x="399" y="647"/>
			<point x="430" y="646"/>
			<point x="448" y="644" type="curve"/>
			<point x="332" y="527" type="line"/>
			<point x="332" y="322" type="line"/>
			<point x="454" y="333"/>
			<point x="528" y="298"/>
			<point x="528" y="248" type="curve"/>
			<point x="528" y="203"/>
			<point x="480" y="178"/>
			<point x="435" y="178" type="curve"/>
			<point x="398" y="178"/>
			<point x="368" y="182"/>
		</contour>
	</outline>
</glyph>
<glyph name="endash" format="2">
	<advance width="565"/>
	<unicode hex="2013"/>
	<outline>
		<contour>
			<point x="-6" y="388" type="line"/>
			<point x="-6" y="180" type="line"/>
			<point x="557" y="180" type="line"/>
			<point x="557" y="388" type="line"/>
		</contour>
	</outline>
</glyph>
<glyph name="emdash" format="2">
	<advance width="1105"/>
	<unicode hex="2014"/>
	<outline>
		<contour>
			<point x="-26" y="388" type="line"/>
			<point x="-26" y="180" type="line"/>
			<point x="1117" y="180" type="line"/>
			<point x="1117" y="388" type="line"/>
		</contour>
	</outline>
</glyph>
<glyph name="quoteleft" format="2">
	<advance width="316"/>
	<unicode hex="2018"/>
	<outline>
		<contour>
			<point x="170" y="440" type="curve"/>
			<point x="170" y="440" type="line"/>
			<point x="242" y="440"/>
			<point x="298" y="491"/>
			<point x="298" y="574" type="curve"/>
			<point x="298" y="654"/>
			<point x="248" y="687"/>
			<point x="204" y="687" type="curve"/>
			<point x="185" y="687"/>
			<point x="162" y="684"/>
			<point x="153" y="675" type="curve"/>
			<point x="153" y="740"/>
			<point x="242" y="795"/>
			<point x="270" y="809" type="curve"/>
			<point x="217" y="849" type="line"/>
			<point x="124" y="809"/>
			<point x="42" y="720"/>
			<point x="42" y="594" type="curve"/>
			<point x="42" y="492"/>
			<point x="97" y="440"/>
		</contour>
	</outline>
</glyph>
<glyph name="quotesinglbase" format="2">
	<advance width="316"/>
	<unicode hex="201A"/>
	<outline>
		<contour>
			<point x="169" y="251" type="curve"/>
			<point x="169" y="251" type="line"/>
			<point x="98" y="251"/>
			<point x="38" y="192"/>
			<point x="38" y="120" type="curve"/>
			<point x="38" y="39"/>
			<point x="93" y="-7"/>
			<point x="149" y="-7" type="curve"/>
			<point x="167" y="-7"/>
			<point x="177" y="-5"/>
			<point x="185" y="0" type="curve"/>
			<point x="165" y="-61"/>
			<point x="97" y="-117"/>
			<point x="51" y="-142" type="curve"/>
			<point x="108" y="-209" type="line"/>
			<point x="209" y="-153"/>
			<point x="299" y="-22"/>
			<point x="299" y="102" type="curve"/>
			<point x="299" y="202"/>
			<point x="240" y="251"/>
		</contour>
	</outline>
</glyph>
<glyph name="bullet" format="2">
	<advance width="741"/>
	<unicode hex="2022"/>
	<outline>
		<contour>
			<point x="362" y="591" type="curve"/>
			<point x="362" y="591" type="line"/>
			<point x="233" y="591"/>
			<point x="129" y="485"/>
			<point x="129" y="356" type="curve"/>
			<point x="129" y="228"/>
			<point x="233" y="123"/>
			<point x="362" y="123" type="curve"/>
			<point x="491" y="123"/>
			<point x="597" y="227"/>
			<point x="597" y="356" type="curve"/>
			<point x="597" y="486"/>
			<point x="491" y="591"/>
		</contour>
	</outline>
</glyph>
<glyph name="perthousand" format="2">
	<advance width="1540"/>
	<unicode hex="2030"/>
	<outline>
		<contour>
			<point x="1085" y="686" type="line"/>
			<point x="1013" y="786" type="line"/>
			<point x="-4" y="162" type="line"/>
			<point x="68" y="62" type="line"/>
		</contour>
		<contour>
			<point x="20" y="643" type="curve"/>
			<point x="20" y="643" type="line"/>
			<point x="20" y="527"/>
			<point x="117" y="425"/>
			<point x="265" y="425" type="curve"/>
			<point x="413" y="425"/>
			<point x="510" y="527"/>
			<point x="510" y="643" type="curve"/>
			<point x="510" y="761"/>
			<point x="413" y="861"/>
			<point x="265" y="861" type="curve"/>
			<point x="117" y="861"/>
			<point x="20" y="761"/>
		</contour>
		<contour>
			<point x="184" y="643" type="curve"/>
			<point x="184" y="643" type="line"/>
			<point x="184" y="692"/>
			<point x="217" y="730"/>
			<point x="265" y="730" type="curve"/>
			<point x="313" y="730"/>
			<point x="344" y="692"/>
			<point x="344" y="643" type="curve"/>
			<point x="344" y="594"/>
			<point x="313" y="558"/>
			<point x="265" y="558" type="curve"/>
			<point x="217" y="558"/>
			<point x="184" y="594"/>
		</contour>
		<contour>
			<point x="510" y="182" type="curve"/>
			<point x="510" y="182" type="line"/>
			<point x="510" y="66"/>
			<point x="607" y="-36"/>
			<point x="755" y="-36" type="curve"/>
			<point x="903" y="-36"/>
			<point x="1000" y="66"/>
			<point x="1000" y="182" type="curve"/>
			<point x="1000" y="300"/>
			<point x="903" y="400"/>
			<point x="755" y="400" type="curve"/>
			<point x="607" y="400"/>
			<point x="510" y="300"/>
		</contour>
		<contour>
			<point x="674" y="182" type="curve"/>
			<point x="674" y="182" type="line"/>
			<point x="674" y="231"/>
			<point x="707" y="269"/>
			<point x="755" y="269" type="curve"/>
			<point x="803" y="269"/>
			<point x="834" y="231"/>
			<point x="834" y="182" type="curve"/>
			<point x="834" y="133"/>
			<point x="803" y="97"/>
			<point x="755" y="97" type="curve"/>
			<point x="707" y="97"/>
			<point x="674" y="133"/>
		</contour>
		<contour>
			<point x="1030" y="182" type="curve"/>
			<point x="1030" y="182" type="line"/>
			<point x="1030" y="66"/>
			<point x="1127" y="-36"/>
			<point x="1275" y="-36" type="curve"/>
			<point x="1423" y="-36"/>
			<point x="1520" y="66"/>
			<point x="1520" y="182" type="curve"/>
			<point x="1520" y="300"/>
			<point x="1423" y="400"/>
			<point x="1275" y="400" type="curve"/>
			<point x="1127" y="400"/>
			<point x="1030" y="300"/>
		</contour>
		<contour>
			<point x="1194" y="182" type="curve"/>
			<point x="1194" y="182" type="line"/>
			<point x="1194" y="231"/>
			<point x="1227" y="269"/>
			<point x="1275" y="269" type="curve"/>
			<point x="1323" y="269"/>
			<point x="1354" y="231"/>
			<point x="1354" y="182" type="curve"/>
			<point x="1354" y="133"/>
			<point x="1323" y="97"/>
			<point x="1275" y="97" type="curve"/>
			<point x="1227" y="97"/>
			<point x="1194" y="133"/>
		</contour>
	</outline>
</glyph>
<glyph name="guilsinglleft" format="2">
	<advance width="400"/>
	<unicode hex="2039"/>
	<outline>
		<contour>
			<point x="225" y="18" type="line"/>
			<point x="342" y="110" type="line"/>
			<point x="213" y="278" type="line"/>
			<point x="342" y="446" type="line"/>
			<point x="225" y="539" type="line"/>
			<point x="22" y="278" type="line"/>
		</contour>
	</outline>
</glyph>
<glyph name="fraction" format="2">
	<advance width="289"/>
	<unicode hex="2044"/>
	<outline>
		<contour>
			<point x="460" y="825" type="line"/>
			<point x="315" y="825" type="line"/>
			<point x="-165" y="0" type="line"/>
			<point x="-20" y="0" type="line"/>
		</contour>
	</outline>
</glyph>
<glyph name="franc" format="2">
	<advance width="622"/>
	<unicode hex="20A3"/>
	<outline>
		<contour>
			<point x="442" y="247" type="line"/>
			<point x="-12" y="247" type="line"/>
			<point x="-12" y="103" type="line"/>
			<point x="442" y="103" type="line"/>
		</contour>
		<component base="F"/>
	</outline>
</glyph>
<glyph name="Euro" format="2">
	<advance width="822"/>
	<unicode hex="20AC"/>
	<outline>
		<contour>
			<point x="627" y="558" type="line"/>
			<point x="5" y="558" type="line"/>
			<point x="5" y="432" type="line"/>
			<point x="627" y="432" type="line"/>
		</contour>
		<contour>
			<point x="627" y="391" type="line"/>
			<point x="5" y="391" type="line"/>
			<point x="5" y="265" type="line"/>
			<point x="627" y="265" type="line"/>
		</contour>
		<component base="C.ss01" xOffset="36"/>
	</outline>
</glyph>
<glyph name="uni20B1" format="2">
	<advance width="721"/>
	<unicode hex="20B1"/>
	<anchor x="338" y="825" name="top"/>
	<anchor x="338" y="0" name="bottom"/>
	<outline>
		<contour>
			<point x="384" y="825" type="curve"/>
			<point x="38" y="825" type="line"/>
			<point x="38" y="0" type="line"/>
			<point x="280" y="0" type="line"/>
			<point x="280" y="173" type="line"/>
			<point x="384" y="173" type="line" smooth="yes"/>
			<point x="545" y="173"/>
			<point x="681" y="306"/>
			<point x="681" y="505" type="curve"/>
			<point x="681" y="704"/>
			<point x="545" y="825"/>
		</contour>
		<contour>
			<point x="316" y="361" type="curve"/>
			<point x="280" y="361" type="line"/>
			<point x="280" y="637" type="line"/>
			<point x="316" y="637" type="line" smooth="yes"/>
			<point x="371" y="637"/>
			<point x="422" y="594"/>
			<point x="422" y="499" type="curve"/>
			<point x="422" y="404"/>
			<point x="371" y="361"/>
		</contour>
		<contour>
			<point x="-9" y="486" type="line"/>
			<point x="-9" y="392" type="line"/>
			<point x="732" y="392" type="line"/>
			<point x="732" y="486" type="line"/>
		</contour>
		<contour>
			<point x="-9" y="607" type="line"/>
			<point x="-9" y="513" type="line"/>
			<point x="732" y="513" type="line"/>
			<point x="732" y="607" type="line"/>
		</contour>
	</outline>
</glyph>
<glyph name="uni20B9" format="2">
	<advance width="771"/>
	<unicode hex="20B9"/>
	<outline>
		<contour>
			<point x="348" y="825" type="curve"/>
			<point x="96" y="825" type="line"/>
			<point x="96" y="667" type="line"/>
			<point x="252" y="667" type="line" smooth="yes"/>
			<point x="336" y="667"/>
			<point x="388" y="622"/>
			<point x="388" y="527" type="curve"/>
			<point x="388" y="432"/>
			<point x="334" y="387"/>
			<point x="250" y="387" type="curve"/>
			<point x="95" y="387" type="line"/>
			<point x="95" y="253" type="line"/>
			<point x="204" y="253" type="line"/>
			<point x="433" y="253"/>
			<point x="603" y="320"/>
			<point x="603" y="535" type="curve"/>
			<point x="603" y="695"/>
			<point x="498" y="825"/>
		</contour>
		<contour>
			<point x="96" y="825" type="line"/>
			<point x="96" y="683" type="line"/>
			<point x="692" y="683" type="line"/>
			<point x="692" y="825" type="line"/>
		</contour>
		<contour>
			<point x="96" y="598" type="line"/>
			<point x="96" y="455" type="line"/>
			<point x="692" y="455" type="line"/>
			<point x="692" y="598" type="line"/>
		</contour>
		<contour>
			<point x="280" y="341" type="line"/>
			<point x="95" y="253" type="line"/>
			<point x="347" y="0" type="line"/>
			<point x="620" y="0" type="line"/>
		</contour>
	</outline>
</glyph>
<glyph name="uni20BA" format="2">
	<advance width="640"/>
	<unicode hex="20BA"/>
	<outline>
		<contour>
			<point x="291" y="825" type="line"/>
			<point x="49" y="825" type="line"/>
			<point x="49" y="0" type="line"/>
			<point x="294" y="0" type="line"/>
			<point x="520" y="0"/>
			<point x="658" y="97"/>
			<point x="658" y="371" type="curve"/>
			<point x="457" y="371" type="line"/>
			<point x="457" y="244"/>
			<point x="385" y="210"/>
			<point x="291" y="210" type="curve"/>
		</contour>
		<contour>
			<point x="-18" y="605" type="line"/>
			<point x="-18" y="458" type="line"/>
			<point x="488" y="623" type="line"/>
			<point x="488" y="770" type="line"/>
		</contour>
		<contour>
			<point x="-18" y="393" type="line"/>
			<point x="-18" y="246" type="line"/>
			<point x="488" y="411" type="line"/>
			<point x="488" y="558" type="line"/>
		</contour>
	</outline>
</glyph>
<glyph name="uni20BC" format="2">
	<advance width="796"/>
	<unicode hex="20BC"/>
	<outline>
		<contour>
			<point x="35" y="486" type="curve"/>
			<point x="35" y="0" type="line"/>
			<point x="277" y="0" type="line"/>
			<point x="277" y="462" type="line" smooth="yes"/>
			<point x="277" y="526"/>
			<point x="313" y="567"/>
			<point x="391" y="567" type="curve"/>
			<point x="468" y="567"/>
			<point x="504" y="526"/>
			<point x="504" y="462" type="curve"/>
			<point x="504" y="0" type="line"/>
			<point x="746" y="0" type="line"/>
			<point x="746" y="486" type="line" smooth="yes"/>
			<point x="746" y="661"/>
			<point x="631" y="767"/>
			<point x="391" y="767" type="curve"/>
			<point x="150" y="767"/>
			<point x="35" y="661"/>
		</contour>
		<contour>
			<point x="320" y="860" type="line"/>
			<point x="320" y="0" type="line"/>
			<point x="465" y="0" type="line"/>
			<point x="465" y="860" type="line"/>
		</contour>
	</outline>
</glyph>
<glyph name="uni2116" format="2">
	<advance width="1601"/>
	<unicode hex="2116"/>
	<outline>
		<contour>
			<point x="1548" y="184" type="line"/>
			<point x="978" y="184" type="line"/>
			<point x="978" y="0" type="line"/>
			<point x="1548" y="0" type="line"/>
		</contour>
		<component base="N"/>
		<component base="o" xOffset="943" yOffset="304"/>
	</outline>
</glyph>
<glyph name="trademark" format="2">
	<advance width="539"/>
	<unicode hex="2122"/>
	<outline>
		<contour>
			<point x="190" y="825" type="line"/>
			<point x="7" y="825" type="line"/>
			<point x="7" y="764" type="line"/>
			<point x="62" y="764" type="line"/>
			<point x="62" y="567" type="line"/>
			<point x="135" y="567" type="line"/>
			<point x="135" y="764" type="line"/>
			<point x="190" y="764" type="line"/>
		</contour>
		<contour>
			<point x="444" y="567" type="line"/>
			<point x="516" y="567" type="line"/>
			<point x="492" y="825" type="line"/>
			<point x="420" y="825" type="line"/>
			<point x="356" y="695" type="line"/>
			<point x="291" y="825" type="line"/>
			<point x="219" y="825" type="line"/>
			<point x="196" y="567" type="line"/>
			<point x="267" y="567" type="line"/>
			<point x="279" y="698" type="line"/>
			<point x="280" y="698" type="line"/>
			<point x="340" y="569" type="line"/>
			<point x="372" y="569" type="line"/>
			<point x="433" y="698" type="line"/>
			<point x="434" y="698" type="line"/>
		</contour>
	</outline>
</glyph>
<glyph name="minus" format="2">
	<advance width="658"/>
	<unicode hex="2212"/>
	<outline>
		<contour>
			<point x="54" y="514" type="line"/>
			<point x="54" y="316" type="line"/>
			<point x="590" y="316" type="line"/>
			<point x="590" y="514" type="line"/>
		</contour>
	</outline>
</glyph>
<glyph name="notequal" format="2">
	<advance width="658"/>
	<unicode hex="2260"/>
	<outline>
		<contour>
			<point x="22" y="57" type="line"/>
			<point x="167" y="57" type="line"/>
			<point x="574" y="769" type="line"/>
			<point x="429" y="769" type="line"/>
		</contour>
		<component base="equal" xOffset="10"/>
	</outline>
</glyph>
<glyph name="C.ss01" format="2">
	<advance width="816"/>
	<outline>
		<contour>
			<point x="502" y="225" type="curve"/>
			<point x="502" y="225" type="line"/>
			<point x="344" y="225"/>
			<point x="294" y="327"/>
			<point x="294" y="413" type="curve"/>
			<point x="294" y="498"/>
			<point x="344" y="600"/>
			<point x="502" y="600" type="curve"/>
			<point x="560" y="600"/>
			<point x="620" y="577"/>
			<point x="650" y="559" type="curve"/>
			<point x="753" y="764" type="line"/>
			<point x="713" y="797"/>
			<point x="612" y="840"/>
			<point x="482" y="840" type="curve"/>
			<point x="238" y="840"/>
			<point x="31" y="658"/>
			<point x="31" y="411" type="curve"/>
			<point x="31" y="165"/>
			<point x="239" y="-15"/>
			<point x="482" y="-15" type="curve"/>
			<point x="612" y="-15"/>
			<point x="713" y="28"/>
			<point x="753" y="61" type="curve"/>
			<point x="650" y="266" type="line"/>
			<point x="620" y="248"/>
			<point x="560" y="225"/>
		</contour>
	</outline>
</glyph>
<glyph name="Q.ss01" format="2">
	<advance width="930"/>
	<anchor x="444" y="825" name="top"/>
	<anchor x="444" y="0" name="bottom"/>
	<outline>
		<contour>
			<point x="670" y="288" type="line"/>
			<point x="411" y="288" type="line"/>
			<point x="640" y="-104" type="line"/>
			<point x="899" y="-104" type="line"/>
		</contour>
		<component base="O"/>
	</outline>
</glyph>
<glyph name="Q.ss02" format="2">
	<advance width="931"/>
	<anchor x="442" y="825" name="top"/>
	<anchor x="442" y="0" name="bottom"/>
	<outline>
		<contour>
			<point x="440" y="-15" type="curve"/>
			<point x="440" y="-15" type="line"/>
			<point x="513" y="-15"/>
			<point x="587" y="1"/>
			<point x="650" y="35" type="curve"/>
			<point x="680" y="11"/>
			<point x="731" y="-21"/>
			<point x="803" y="-51" type="curve"/>
			<point x="909" y="165" type="line"/>
			<point x="830" y="188"/>
			<point x="823" y="193"/>
			<point x="807" y="198" type="curve"/>
			<point x="841" y="260"/>
			<point x="862" y="333"/>
			<point x="862" y="413" type="curve"/>
			<point x="862" y="654"/>
			<point x="669" y="840"/>
			<point x="440" y="840" type="curve"/>
			<point x="214" y="840"/>
			<point x="18" y="654"/>
			<point x="18" y="413" type="curve"/>
			<point x="18" y="172"/>
			<point x="197" y="-15"/>
		</contour>
		<contour>
			<point x="440" y="233" type="curve"/>
			<point x="440" y="233" type="line"/>
			<point x="309" y="233"/>
			<point x="280" y="322"/>
			<point x="280" y="413" type="curve"/>
			<point x="280" y="504"/>
			<point x="318" y="593"/>
			<point x="440" y="593" type="curve"/>
			<point x="564" y="593"/>
			<point x="600" y="504"/>
			<point x="600" y="413" type="curve"/>
			<point x="600" y="380"/>
			<point x="597" y="347"/>
			<point x="586" y="317" type="curve"/>
			<point x="490" y="384"/>
			<point x="435" y="455"/>
			<point x="456" y="434" type="curve"/>
			<point x="356" y="309" type="line"/>
			<point x="362" y="297"/>
			<point x="391" y="253"/>
			<point x="433" y="205" type="curve"/>
			<point x="429" y="222"/>
			<point x="433" y="233"/>
		</contour>
	</outline>
</glyph>
